<?xml version="1.0" encoding="UTF-8" standalone="no"?>
<!DOCTYPE svg PUBLIC "-//W3C//DTD SVG 1.1//EN"
 "http://www.w3.org/Graphics/SVG/1.1/DTD/svg11.dtd">
<!-- Generated by graphviz version 9.0.0 (20230911.1827)
 -->
<!-- Title: Backcross triploid2 Pages: 1 -->
<svg width="275pt" height="409pt"
 viewBox="0.00 0.00 274.96 408.55" xmlns="http://www.w3.org/2000/svg" xmlns:xlink="http://www.w3.org/1999/xlink">
<g id="graph0" class="graph" transform="scale(1 1) rotate(0) translate(4 404.55)">
<title>Backcross triploid2</title>
<polygon fill="white" stroke="none" points="-4,4 -4,-404.55 270.96,-404.55 270.96,4 -4,4"/>
<!-- maternal -->
<g id="node1" class="node backcross_triploid_2 hexaploid backcross">
<title>maternal</title>
<ellipse fill="none" stroke="black" cx="62.62" cy="-367.85" rx="27" ry="32.7"/>
<text text-anchor="middle" x="62.62" y="-373.67" font-family="Times,serif" font-size="14.00">â™€</text>
<text text-anchor="middle" x="62.62" y="-357.17" font-family="Times,serif" font-size="14.00">4ğ‘¥</text>
</g>
<!-- maternal_gamete -->
<g id="node2" class="node backcross_triploid_2 hexaploid backcross">
<title>maternal_gamete</title>
<ellipse fill="none" stroke="black" cx="62.62" cy="-261.61" rx="27" ry="21.04"/>
<text text-anchor="middle" x="62.62" y="-259.18" font-family="Times,serif" font-size="14.00">2ğ‘¥</text>
</g>
<!-- maternal&#45;&gt;maternal_gamete -->
<g id="edge1" class="edge backcross_triploid_2 hexaploid backcross">
<title>maternal&#45;&gt;maternal_gamete</title>
<path fill="none" stroke="black" d="M62.62,-334.72C62.62,-321.81 62.62,-306.96 62.62,-294.11"/>
<polygon fill="black" stroke="black" points="66.13,-294.49 62.63,-284.49 59.13,-294.49 66.13,-294.49"/>
<text text-anchor="middle" x="121.88" y="-303.85" font-family="Times,serif" font-size="14.00"> &#160;(gamete production)</text>
</g>
<!-- hybrid_outcome_1 -->
<g id="node5" class="node backcross_triploid_2 hexaploid backcross">
<title>hybrid_outcome_1</title>
<polygon fill="none" stroke="black" points="156.25,-203.57 69,-203.57 69,-167.57 156.25,-167.57 156.25,-203.57"/>
<text text-anchor="middle" x="112.62" y="-183.15" font-family="Times,serif" font-size="14.00">3ğ‘¥ F1 hybrid</text>
</g>
<!-- maternal_gamete&#45;&gt;hybrid_outcome_1 -->
<g id="edge4" class="edge backcross_triploid_2 hexaploid backcross">
<title>maternal_gamete&#45;&gt;hybrid_outcome_1</title>
<path fill="none" stroke="black" d="M74.73,-242.69C80.71,-233.83 88.05,-222.96 94.67,-213.16"/>
<polygon fill="black" stroke="black" points="97.43,-215.32 100.13,-205.07 91.63,-211.4 97.43,-215.32"/>
</g>
<!-- hybrid_outcome_3 -->
<g id="node7" class="node backcross_triploid_2 backcross onhover">
<title>hybrid_outcome_3</title>
<polygon fill="none" stroke="black" points="105.25,-36 0,-36 0,0 105.25,0 105.25,-36"/>
<text text-anchor="middle" x="52.62" y="-15.57" font-family="Times,serif" font-size="14.00">4ğ‘¥ F1 backcross</text>
</g>
<!-- maternal_gamete&#45;&gt;hybrid_outcome_3 -->
<g id="edge5" class="edge backcross_triploid_2 backcross">
<title>maternal_gamete&#45;&gt;hybrid_outcome_3</title>
<path fill="none" stroke="black" d="M61.48,-240.29C60.89,-229.4 60.18,-215.76 59.62,-203.57 57.12,-148.31 54.82,-83.72 53.58,-47.46"/>
<polygon fill="black" stroke="black" points="57.09,-47.7 53.25,-37.82 50.09,-47.93 57.09,-47.7"/>
</g>
<!-- paternal -->
<g id="node3" class="node backcross_triploid_2 hexaploid backcross">
<title>paternal</title>
<ellipse fill="none" stroke="black" cx="235.62" cy="-367.85" rx="27" ry="32.7"/>
<text text-anchor="middle" x="235.62" y="-373.67" font-family="Times,serif" font-size="14.00">â™‚</text>
<text text-anchor="middle" x="235.62" y="-357.17" font-family="Times,serif" font-size="14.00">2ğ‘¥</text>
</g>
<!-- paternal_gamete -->
<g id="node4" class="node backcross_triploid_2 hexaploid backcross">
<title>paternal_gamete</title>
<ellipse fill="none" stroke="black" cx="134.62" cy="-261.61" rx="27" ry="21.04"/>
<text text-anchor="middle" x="134.62" y="-259.18" font-family="Times,serif" font-size="14.00">ğ‘¥</text>
</g>
<!-- paternal&#45;&gt;paternal_gamete -->
<g id="edge2" class="edge backcross_triploid_2 hexaploid backcross">
<title>paternal&#45;&gt;paternal_gamete</title>
<path fill="none" stroke="black" d="M219.11,-341.6C210.03,-328.65 198.09,-313.03 185.62,-300.65 179.13,-294.19 171.48,-287.92 164.12,-282.4"/>
<polygon fill="black" stroke="black" points="166.43,-279.75 156.28,-276.73 162.33,-285.42 166.43,-279.75"/>
</g>
<!-- hybrid_outcome_1_gamete -->
<g id="node6" class="node backcross_triploid_2 backcross">
<title>hybrid_outcome_1_gamete</title>
<ellipse fill="none" stroke="black" cx="95.62" cy="-94.04" rx="27" ry="21.04"/>
<text text-anchor="middle" x="95.62" y="-91.61" font-family="Times,serif" font-size="14.00">2ğ‘¥</text>
</g>
<!-- paternal&#45;&gt;hybrid_outcome_1_gamete -->
<g id="edge3" class="edge backcross_triploid_2 backcross">
<title>paternal&#45;&gt;hybrid_outcome_1_gamete</title>
<path fill="none" stroke="black" d="M246.56,-337.78C262.58,-289.71 285.82,-193.05 239.62,-133.07 226.76,-116.36 171.82,-105.51 133.65,-99.83"/>
<polygon fill="black" stroke="black" points="134.3,-96.38 123.91,-98.44 133.32,-103.31 134.3,-96.38"/>
</g>
<!-- paternal_gamete&#45;&gt;hybrid_outcome_1 -->
<g id="edge6" class="edge backcross_triploid_2 hexaploid backcross">
<title>paternal_gamete&#45;&gt;hybrid_outcome_1</title>
<path fill="none" stroke="black" d="M128.73,-240.77C126.36,-232.79 123.58,-223.44 121,-214.77"/>
<polygon fill="black" stroke="black" points="124.42,-213.99 118.22,-205.4 117.71,-215.98 124.42,-213.99"/>
</g>
<!-- hybrid_outcome_1&#45;&gt;hybrid_outcome_1_gamete -->
<g id="edge7" class="edge backcross_triploid_2 backcross">
<title>hybrid_outcome_1&#45;&gt;hybrid_outcome_1_gamete</title>
<path fill="none" stroke="black" d="M95.97,-167.37C91.87,-162.08 88.03,-155.95 85.88,-149.57 83.31,-141.98 83.44,-133.56 84.79,-125.64"/>
<polygon fill="black" stroke="black" points="88.17,-126.59 87.12,-116.04 81.36,-124.94 88.17,-126.59"/>
<text text-anchor="middle" x="163.5" y="-136.27" font-family="Times,serif" font-size="14.00">â† (unreduced gametes) â†’ </text>
</g>
<!-- hybrid_outcome_1_gamete&#45;&gt;hybrid_outcome_3 -->
<g id="edge8" class="edge backcross_triploid_2 backcross">
<title>hybrid_outcome_1_gamete&#45;&gt;hybrid_outcome_3</title>
<path fill="none" stroke="black" d="M84.77,-74.35C79.8,-65.8 73.82,-55.49 68.37,-46.1"/>
<polygon fill="black" stroke="black" points="71.54,-44.6 63.49,-37.71 65.49,-48.12 71.54,-44.6"/>
</g>
</g>
</svg>
