<?xml version="1.0" encoding="UTF-8" standalone="no"?>
<!DOCTYPE svg PUBLIC "-//W3C//DTD SVG 1.1//EN"
 "http://www.w3.org/Graphics/SVG/1.1/DTD/svg11.dtd">
<!-- Generated by graphviz version 8.0.1 (20230327.1645)
 -->
<!-- Title: Backcross triploid Pages: 1 -->
<svg width="266pt" height="382pt"
 viewBox="0.00 0.00 265.50 381.74" xmlns="http://www.w3.org/2000/svg" xmlns:xlink="http://www.w3.org/1999/xlink">
<g id="graph0" class="graph" transform="scale(1 1) rotate(0) translate(4 377.74)">
<title>Backcross triploid</title>
<polygon fill="white" stroke="none" points="-4,4 -4,-377.74 261.5,-377.74 261.5,4 -4,4"/>
<!-- â™€
4ğ‘¥ -->
<g id="node1" class="node">
<title>â™€
4ğ‘¥</title>
<ellipse fill="none" stroke="black" cx="96.5" cy="-346.87" rx="27" ry="26.74"/>
<text text-anchor="middle" x="96.5" y="-350.67" font-family="Times,serif" font-size="14.00">â™€</text>
<text text-anchor="middle" x="96.5" y="-335.67" font-family="Times,serif" font-size="14.00">4ğ‘¥</text>
</g>
<!-- 2ğ‘¥ -->
<g id="node2" class="node">
<title>2ğ‘¥</title>
<ellipse fill="none" stroke="black" cx="97.5" cy="-251" rx="27" ry="18"/>
<text text-anchor="middle" x="97.5" y="-247.3" font-family="Times,serif" font-size="14.00">2ğ‘¥</text>
</g>
<!-- â™€
4ğ‘¥&#45;&gt;2ğ‘¥ -->
<g id="edge1" class="edge">
<title>â™€
4ğ‘¥&#45;&gt;2ğ‘¥</title>
<path fill="none" stroke="black" d="M96.78,-319.72C96.91,-307.43 97.07,-292.75 97.2,-280.21"/>
<polygon fill="black" stroke="black" points="100.71,-280.45 97.31,-270.42 93.71,-280.38 100.71,-280.45"/>
<text text-anchor="middle" x="157" y="-290.8" font-family="Times,serif" font-size="14.00"> &#160;(gamete production)</text>
</g>
<!-- 3ğ‘¥ F1 hybrid -->
<g id="node5" class="node">
<title>3ğ‘¥ F1 hybrid</title>
<polygon fill="none" stroke="black" points="150.5,-196 62.5,-196 62.5,-160 150.5,-160 150.5,-196"/>
<text text-anchor="middle" x="106.5" y="-174.3" font-family="Times,serif" font-size="14.00">3ğ‘¥ F1 hybrid</text>
</g>
<!-- 2ğ‘¥&#45;&gt;3ğ‘¥ F1 hybrid -->
<g id="edge4" class="edge">
<title>2ğ‘¥&#45;&gt;3ğ‘¥ F1 hybrid</title>
<path fill="none" stroke="black" d="M99.68,-232.81C100.67,-224.96 101.88,-215.47 102.99,-206.66"/>
<polygon fill="black" stroke="black" points="106.56,-207.39 104.34,-197.03 99.61,-206.51 106.56,-207.39"/>
</g>
<!-- â™‚
2ğ‘¥ -->
<g id="node3" class="node">
<title>â™‚
2ğ‘¥</title>
<ellipse fill="none" stroke="black" cx="230.5" cy="-346.87" rx="27" ry="26.74"/>
<text text-anchor="middle" x="230.5" y="-350.67" font-family="Times,serif" font-size="14.00">â™‚</text>
<text text-anchor="middle" x="230.5" y="-335.67" font-family="Times,serif" font-size="14.00">2ğ‘¥</text>
</g>
<!-- ğ‘¥ -->
<g id="node4" class="node">
<title>ğ‘¥</title>
<ellipse fill="none" stroke="black" cx="229.5" cy="-251" rx="27" ry="18"/>
<text text-anchor="middle" x="229.5" y="-247.3" font-family="Times,serif" font-size="14.00">ğ‘¥</text>
</g>
<!-- â™‚
2ğ‘¥&#45;&gt;ğ‘¥ -->
<g id="edge2" class="edge">
<title>â™‚
2ğ‘¥&#45;&gt;ğ‘¥</title>
<path fill="none" stroke="black" d="M230.22,-319.72C230.09,-307.43 229.93,-292.75 229.8,-280.21"/>
<polygon fill="black" stroke="black" points="233.29,-280.38 229.69,-270.42 226.29,-280.45 233.29,-280.38"/>
</g>
<!-- ğ‘¥&#45;&gt;3ğ‘¥ F1 hybrid -->
<g id="edge3" class="edge">
<title>ğ‘¥&#45;&gt;3ğ‘¥ F1 hybrid</title>
<path fill="none" stroke="black" d="M209.46,-238.43C192.34,-228.55 167.2,-214.04 146.05,-201.83"/>
<polygon fill="black" stroke="black" points="148.06,-198.37 137.65,-196.4 144.56,-204.44 148.06,-198.37"/>
</g>
<!-- 2ğ‘¥ F1 backcross -->
<g id="node6" class="node">
<title>2ğ‘¥ F1 backcross</title>
<polygon fill="none" stroke="black" points="254.5,-36 148.5,-36 148.5,0 254.5,0 254.5,-36"/>
<text text-anchor="middle" x="201.5" y="-14.3" font-family="Times,serif" font-size="14.00">2ğ‘¥ F1 backcross</text>
</g>
<!-- ğ‘¥&#45;&gt;2ğ‘¥ F1 backcross -->
<g id="edge7" class="edge">
<title>ğ‘¥&#45;&gt;2ğ‘¥ F1 backcross</title>
<path fill="none" stroke="black" stroke-dasharray="5,2" d="M227.97,-232.62C225.11,-200.86 218.48,-131.33 210.5,-73 209.35,-64.58 207.9,-55.46 206.51,-47.15"/>
<polygon fill="black" stroke="black" points="209.82,-46.73 204.68,-37.47 202.92,-47.92 209.82,-46.73"/>
</g>
<!-- 6ğ‘¥ polyploid species -->
<g id="node7" class="node">
<title>6ğ‘¥ polyploid species</title>
<polygon fill="none" stroke="black" points="129,-109 0,-109 0,-73 129,-73 129,-109"/>
<text text-anchor="middle" x="64.5" y="-87.3" font-family="Times,serif" font-size="14.00">6ğ‘¥ polyploid species</text>
</g>
<!-- 3ğ‘¥ F1 hybrid&#45;&gt;6ğ‘¥ polyploid species -->
<g id="edge5" class="edge">
<title>3ğ‘¥ F1 hybrid&#45;&gt;6ğ‘¥ polyploid species</title>
<path fill="none" stroke="black" d="M95.53,-159.83C92.14,-154.24 88.51,-147.94 85.5,-142 81.86,-134.81 78.3,-126.83 75.18,-119.4"/>
<polygon fill="black" stroke="black" points="78.12,-118.34 71.1,-110.4 71.64,-120.98 78.12,-118.34"/>
</g>
<!-- ğ‘¥  -->
<g id="node8" class="node">
<title>ğ‘¥ </title>
<ellipse fill="none" stroke="black" cx="174.5" cy="-91" rx="27" ry="18"/>
<text text-anchor="middle" x="174.5" y="-87.3" font-family="Times,serif" font-size="14.00">ğ‘¥ </text>
</g>
<!-- 3ğ‘¥ F1 hybrid&#45;&gt;ğ‘¥  -->
<g id="edge6" class="edge">
<title>3ğ‘¥ F1 hybrid&#45;&gt;ğ‘¥ </title>
<path fill="none" stroke="black" d="M103.11,-159.53C102.06,-149.3 102.49,-136.56 108.5,-127 110.7,-123.5 127.09,-114.8 142.98,-106.95"/>
<polygon fill="black" stroke="black" points="144.22,-109.75 151.68,-102.23 141.16,-103.46 144.22,-109.75"/>
<text text-anchor="middle" x="162" y="-130.8" font-family="Times,serif" font-size="14.00"> (reduced gamete) &#160;</text>
</g>
<!-- ğ‘¥ &#45;&gt;2ğ‘¥ F1 backcross -->
<g id="edge8" class="edge">
<title>ğ‘¥ &#45;&gt;2ğ‘¥ F1 backcross</title>
<path fill="none" stroke="black" d="M180.9,-73.17C183.92,-65.22 187.62,-55.51 191.03,-46.52"/>
<polygon fill="black" stroke="black" points="194.58,-48.04 194.87,-37.45 188.04,-45.55 194.58,-48.04"/>
</g>
</g>
</svg>
