<?xml version="1.0" encoding="UTF-8" standalone="no"?>
<!DOCTYPE svg PUBLIC "-//W3C//DTD SVG 1.1//EN"
 "http://www.w3.org/Graphics/SVG/1.1/DTD/svg11.dtd">
<!-- Generated by graphviz version 9.0.0 (20230911.1827)
 -->
<!-- Title: Backcross triploid1 Pages: 1 -->
<svg width="225pt" height="409pt"
 viewBox="0.00 0.00 225.25 408.55" xmlns="http://www.w3.org/2000/svg" xmlns:xlink="http://www.w3.org/1999/xlink">
<g id="graph0" class="graph" transform="scale(1 1) rotate(0) translate(4 404.55)">
<title>Backcross triploid1</title>
<polygon fill="white" stroke="none" points="-4,4 -4,-404.55 221.25,-404.55 221.25,4 -4,4"/>
<!-- maternal -->
<g id="node1" class="node backcross_triploid_1 hexaploid backcross">
<title>maternal</title>
<ellipse fill="none" stroke="black" cx="43.62" cy="-367.85" rx="27" ry="32.7"/>
<text text-anchor="middle" x="43.62" y="-373.67" font-family="Times,serif" font-size="14.00">â™€</text>
<text text-anchor="middle" x="43.62" y="-357.17" font-family="Times,serif" font-size="14.00">4ğ‘¥</text>
</g>
<!-- maternal_gamete -->
<g id="node2" class="node backcross_triploid_1 hexaploid backcross">
<title>maternal_gamete</title>
<ellipse fill="none" stroke="black" cx="43.62" cy="-261.61" rx="27" ry="21.04"/>
<text text-anchor="middle" x="43.62" y="-259.18" font-family="Times,serif" font-size="14.00">2ğ‘¥</text>
</g>
<!-- maternal&#45;&gt;maternal_gamete -->
<g id="edge1" class="edge backcross_triploid_1 hexaploid backcross">
<title>maternal&#45;&gt;maternal_gamete</title>
<path fill="none" stroke="black" d="M43.62,-334.72C43.62,-321.81 43.62,-306.96 43.62,-294.11"/>
<polygon fill="black" stroke="black" points="47.13,-294.49 43.63,-284.49 40.13,-294.49 47.13,-294.49"/>
<text text-anchor="middle" x="102.88" y="-303.85" font-family="Times,serif" font-size="14.00"> &#160;(gamete production)</text>
</g>
<!-- hybrid_outcome_1 -->
<g id="node5" class="node backcross_triploid_1 hexaploid backcross">
<title>hybrid_outcome_1</title>
<polygon fill="none" stroke="black" points="87.25,-203.57 0,-203.57 0,-167.57 87.25,-167.57 87.25,-203.57"/>
<text text-anchor="middle" x="43.62" y="-183.15" font-family="Times,serif" font-size="14.00">3ğ‘¥ F1 hybrid</text>
</g>
<!-- maternal_gamete&#45;&gt;hybrid_outcome_1 -->
<g id="edge3" class="edge backcross_triploid_1 hexaploid backcross">
<title>maternal_gamete&#45;&gt;hybrid_outcome_1</title>
<path fill="none" stroke="black" d="M43.62,-240.38C43.62,-232.58 43.62,-223.52 43.62,-215.08"/>
<polygon fill="black" stroke="black" points="47.13,-215.28 43.63,-205.28 40.13,-215.28 47.13,-215.28"/>
</g>
<!-- paternal -->
<g id="node3" class="node backcross_triploid_1 hexaploid backcross">
<title>paternal</title>
<ellipse fill="none" stroke="black" cx="187.62" cy="-367.85" rx="27" ry="32.7"/>
<text text-anchor="middle" x="187.62" y="-373.67" font-family="Times,serif" font-size="14.00">â™‚</text>
<text text-anchor="middle" x="187.62" y="-357.17" font-family="Times,serif" font-size="14.00">2ğ‘¥</text>
</g>
<!-- paternal_gamete -->
<g id="node4" class="node backcross_triploid_1 hexaploid backcross">
<title>paternal_gamete</title>
<ellipse fill="none" stroke="black" cx="187.62" cy="-261.61" rx="27" ry="21.04"/>
<text text-anchor="middle" x="187.62" y="-259.18" font-family="Times,serif" font-size="14.00">ğ‘¥</text>
</g>
<!-- paternal&#45;&gt;paternal_gamete -->
<g id="edge2" class="edge backcross_triploid_1 hexaploid backcross">
<title>paternal&#45;&gt;paternal_gamete</title>
<path fill="none" stroke="black" d="M187.62,-334.72C187.62,-321.81 187.62,-306.96 187.62,-294.11"/>
<polygon fill="black" stroke="black" points="191.13,-294.49 187.63,-284.49 184.13,-294.49 191.13,-294.49"/>
</g>
<!-- paternal_gamete&#45;&gt;hybrid_outcome_1 -->
<g id="edge4" class="edge backcross_triploid_1 hexaploid backcross">
<title>paternal_gamete&#45;&gt;hybrid_outcome_1</title>
<path fill="none" stroke="black" d="M165.44,-249.2C144.76,-238.57 113.31,-222.4 87.55,-209.16"/>
<polygon fill="black" stroke="black" points="89.47,-206.21 78.98,-204.75 86.27,-212.43 89.47,-206.21"/>
</g>
<!-- hybrid_outcome_3 -->
<g id="node7" class="node backcross_triploid_1 backcross onhover">
<title>hybrid_outcome_3</title>
<polygon fill="none" stroke="black" points="217.25,-36 112,-36 112,0 217.25,0 217.25,-36"/>
<text text-anchor="middle" x="164.62" y="-15.57" font-family="Times,serif" font-size="14.00">2ğ‘¥ F1 backcross</text>
</g>
<!-- paternal_gamete&#45;&gt;hybrid_outcome_3 -->
<g id="edge7" class="edge backcross_triploid_1 backcross">
<title>paternal_gamete&#45;&gt;hybrid_outcome_3</title>
<path fill="none" stroke="black" d="M186.51,-240.26C185.06,-215.07 182.27,-170.85 178.62,-133.07 175.81,-103.95 171.63,-70.76 168.57,-47.72"/>
<polygon fill="black" stroke="black" points="172.04,-47.31 167.24,-37.86 165.11,-48.24 172.04,-47.31"/>
</g>
<!-- hybrid_outcome_1_gamete -->
<g id="node6" class="node backcross_triploid_1 backcross">
<title>hybrid_outcome_1_gamete</title>
<ellipse fill="none" stroke="black" cx="87.62" cy="-94.04" rx="27" ry="21.04"/>
<text text-anchor="middle" x="87.62" y="-91.61" font-family="Times,serif" font-size="14.00">ğ‘¥</text>
</g>
<!-- hybrid_outcome_1&#45;&gt;hybrid_outcome_1_gamete -->
<g id="edge5" class="edge backcross_triploid_1 backcross">
<title>hybrid_outcome_1&#45;&gt;hybrid_outcome_1_gamete</title>
<path fill="none" stroke="black" d="M37.44,-167.52C34.7,-157.08 33.14,-143.72 38.38,-133.07 42.36,-124.96 49,-118.09 56.14,-112.51"/>
<polygon fill="black" stroke="black" points="57.83,-115.6 64.04,-107.01 53.83,-109.85 57.83,-115.6"/>
<text text-anchor="middle" x="108.75" y="-136.27" font-family="Times,serif" font-size="14.00">â† (reduced gametes) â†’ </text>
</g>
<!-- hybrid_outcome_1_gamete&#45;&gt;hybrid_outcome_3 -->
<g id="edge6" class="edge backcross_triploid_1 backcross">
<title>hybrid_outcome_1_gamete&#45;&gt;hybrid_outcome_3</title>
<path fill="none" stroke="black" d="M104.33,-76.97C114.27,-67.41 127.1,-55.08 138.37,-44.25"/>
<polygon fill="black" stroke="black" points="140.73,-46.83 145.52,-37.37 135.88,-41.78 140.73,-46.83"/>
</g>
</g>
</svg>
