<?xml version="1.0" encoding="UTF-8" standalone="no"?>
<!DOCTYPE svg PUBLIC "-//W3C//DTD SVG 1.1//EN"
 "http://www.w3.org/Graphics/SVG/1.1/DTD/svg11.dtd">
<!-- Generated by graphviz version 8.0.1 (20230327.1645)
 -->
<!-- Title: Backcross triploid Pages: 1 -->
<svg width="241pt" height="382pt"
 viewBox="0.00 0.00 241.00 381.74" xmlns="http://www.w3.org/2000/svg" xmlns:xlink="http://www.w3.org/1999/xlink">
<g id="graph0" class="graph" transform="scale(1 1) rotate(0) translate(4 377.74)">
<title>Backcross triploid</title>
<polygon fill="white" stroke="none" points="-4,4 -4,-377.74 237,-377.74 237,4 -4,4"/>
<!-- тЩА
4ЁЭСе -->
<g id="node1" class="node">
<title>тЩА
4ЁЭСе</title>
<ellipse fill="none" stroke="black" cx="55" cy="-346.87" rx="27" ry="26.74"/>
<text text-anchor="middle" x="55" y="-350.67" font-family="Times,serif" font-size="14.00">тЩА</text>
<text text-anchor="middle" x="55" y="-335.67" font-family="Times,serif" font-size="14.00">4ЁЭСе</text>
</g>
<!-- 2ЁЭСе -->
<g id="node2" class="node">
<title>2ЁЭСе</title>
<ellipse fill="none" stroke="black" cx="55" cy="-251" rx="27" ry="18"/>
<text text-anchor="middle" x="55" y="-247.3" font-family="Times,serif" font-size="14.00">2ЁЭСе</text>
</g>
<!-- тЩА
4ЁЭСе&#45;&gt;2ЁЭСе -->
<g id="edge1" class="edge">
<title>тЩА
4ЁЭСе&#45;&gt;2ЁЭСе</title>
<path fill="none" stroke="black" d="M55,-319.72C55,-307.43 55,-292.75 55,-280.21"/>
<polygon fill="black" stroke="black" points="58.5,-280.42 55,-270.42 51.5,-280.42 58.5,-280.42"/>
<text text-anchor="middle" x="114.5" y="-290.8" font-family="Times,serif" font-size="14.00"> &#160;(gamete production)</text>
</g>
<!-- 3ЁЭСе F1 hybrid -->
<g id="node5" class="node">
<title>3ЁЭСе F1 hybrid</title>
<polygon fill="none" stroke="black" points="157,-196 69,-196 69,-160 157,-160 157,-196"/>
<text text-anchor="middle" x="113" y="-174.3" font-family="Times,serif" font-size="14.00">3ЁЭСе F1 hybrid</text>
</g>
<!-- 2ЁЭСе&#45;&gt;3ЁЭСе F1 hybrid -->
<g id="edge4" class="edge">
<title>2ЁЭСе&#45;&gt;3ЁЭСе F1 hybrid</title>
<path fill="none" stroke="black" d="M67.59,-234.59C74.7,-225.89 83.77,-214.78 91.94,-204.78"/>
<polygon fill="black" stroke="black" points="95.19,-207.33 98.81,-197.37 89.77,-202.9 95.19,-207.33"/>
</g>
<!-- 4ЁЭСе F1 backcross -->
<g id="node6" class="node">
<title>4ЁЭСе F1 backcross</title>
<polygon fill="none" stroke="black" points="106,-36 0,-36 0,0 106,0 106,-36"/>
<text text-anchor="middle" x="53" y="-14.3" font-family="Times,serif" font-size="14.00">4ЁЭСе F1 backcross</text>
</g>
<!-- 2ЁЭСе&#45;&gt;4ЁЭСе F1 backcross -->
<g id="edge6" class="edge">
<title>2ЁЭСе&#45;&gt;4ЁЭСе F1 backcross</title>
<path fill="none" stroke="black" stroke-dasharray="5,2" d="M54.85,-232.64C54.51,-192.99 53.66,-95.51 53.24,-47.15"/>
<polygon fill="black" stroke="black" points="56.74,-47.22 53.15,-37.25 49.74,-47.28 56.74,-47.22"/>
</g>
<!-- тЩВ
2ЁЭСе -->
<g id="node3" class="node">
<title>тЩВ
2ЁЭСе</title>
<ellipse fill="none" stroke="black" cx="206" cy="-346.87" rx="27" ry="26.74"/>
<text text-anchor="middle" x="206" y="-350.67" font-family="Times,serif" font-size="14.00">тЩВ</text>
<text text-anchor="middle" x="206" y="-335.67" font-family="Times,serif" font-size="14.00">2ЁЭСе</text>
</g>
<!-- ЁЭСе -->
<g id="node4" class="node">
<title>ЁЭСе</title>
<ellipse fill="none" stroke="black" cx="156" cy="-251" rx="27" ry="18"/>
<text text-anchor="middle" x="156" y="-247.3" font-family="Times,serif" font-size="14.00">ЁЭСе</text>
</g>
<!-- тЩВ
2ЁЭСе&#45;&gt;ЁЭСе -->
<g id="edge2" class="edge">
<title>тЩВ
2ЁЭСе&#45;&gt;ЁЭСе</title>
<path fill="none" stroke="black" d="M195.32,-321.78C190.34,-310.99 184.16,-298.21 178,-287 176.18,-283.69 174.18,-280.27 172.15,-276.91"/>
<polygon fill="black" stroke="black" points="174.73,-275.43 166.48,-268.79 168.79,-279.13 174.73,-275.43"/>
</g>
<!-- 2ЁЭСе  -->
<g id="node7" class="node">
<title>2ЁЭСе </title>
<ellipse fill="none" stroke="black" cx="96" cy="-91" rx="27" ry="18"/>
<text text-anchor="middle" x="96" y="-87.3" font-family="Times,serif" font-size="14.00">2ЁЭСе </text>
</g>
<!-- тЩВ
2ЁЭСе&#45;&gt;2ЁЭСе  -->
<g id="edge8" class="edge">
<title>тЩВ
2ЁЭСе&#45;&gt;2ЁЭСе </title>
<path fill="none" stroke="black" stroke-dasharray="1,5" d="M214.68,-321.34C228.46,-277.58 249.69,-185.22 207,-127 190.35,-104.29 158.93,-95.93 133.75,-93.03"/>
<polygon fill="black" stroke="black" points="134.33,-89.48 124.06,-92.07 133.7,-96.45 134.33,-89.48"/>
</g>
<!-- ЁЭСе&#45;&gt;3ЁЭСе F1 hybrid -->
<g id="edge3" class="edge">
<title>ЁЭСе&#45;&gt;3ЁЭСе F1 hybrid</title>
<path fill="none" stroke="black" d="M146.24,-233.89C141.11,-225.42 134.7,-214.83 128.87,-205.21"/>
<polygon fill="black" stroke="black" points="131.49,-203.78 123.32,-197.04 125.5,-207.4 131.49,-203.78"/>
</g>
<!-- 3ЁЭСе F1 hybrid&#45;&gt;2ЁЭСе  -->
<g id="edge5" class="edge">
<title>3ЁЭСе F1 hybrid&#45;&gt;2ЁЭСе </title>
<path fill="none" stroke="black" d="M96.19,-159.82C92.05,-154.53 88.18,-148.39 86,-142 83.51,-134.68 83.88,-126.54 85.45,-118.98"/>
<polygon fill="black" stroke="black" points="89.06,-120.07 88.42,-109.5 82.33,-118.17 89.06,-120.07"/>
<text text-anchor="middle" x="146.5" y="-130.8" font-family="Times,serif" font-size="14.00"> (unreduced gamete) &#160;</text>
</g>
<!-- 2ЁЭСе &#45;&gt;4ЁЭСе F1 backcross -->
<g id="edge7" class="edge">
<title>2ЁЭСе &#45;&gt;4ЁЭСе F1 backcross</title>
<path fill="none" stroke="black" d="M86.24,-73.89C81.11,-65.42 74.7,-54.83 68.87,-45.21"/>
<polygon fill="black" stroke="black" points="71.49,-43.78 63.32,-37.04 65.5,-47.4 71.49,-43.78"/>
</g>
</g>
</svg>
