<?xml version="1.0" encoding="UTF-8" standalone="no"?>
<!DOCTYPE svg PUBLIC "-//W3C//DTD SVG 1.1//EN"
 "http://www.w3.org/Graphics/SVG/1.1/DTD/svg11.dtd">
<!-- Generated by graphviz version 8.0.1 (20230327.1645)
 -->
<!-- Title: Backcross triploid1 Pages: 1 -->
<svg width="274pt" height="382pt"
 viewBox="0.00 0.00 274.00 381.74" xmlns="http://www.w3.org/2000/svg" xmlns:xlink="http://www.w3.org/1999/xlink">
<g id="graph0" class="graph" transform="scale(1 1) rotate(0) translate(4 377.74)">
<title>Backcross triploid1</title>
<polygon fill="white" stroke="none" points="-4,4 -4,-377.74 270,-377.74 270,4 -4,4"/>
<!-- maternal -->
<g id="node1" class="node backcross_triploid_1 hexaploid backcross">
<title>maternal</title>
<ellipse fill="none" stroke="black" cx="105" cy="-346.87" rx="27" ry="26.74"/>
<text text-anchor="middle" x="105" y="-350.67" font-family="Times,serif" font-size="14.00">â™€</text>
<text text-anchor="middle" x="105" y="-335.67" font-family="Times,serif" font-size="14.00">4ğ‘¥</text>
</g>
<!-- maternal_gamete -->
<g id="node2" class="node backcross_triploid_1 hexaploid backcross">
<title>maternal_gamete</title>
<ellipse fill="none" stroke="black" cx="110" cy="-251" rx="27" ry="18"/>
<text text-anchor="middle" x="110" y="-247.3" font-family="Times,serif" font-size="14.00">2ğ‘¥</text>
</g>
<!-- maternal&#45;&gt;maternal_gamete -->
<g id="edge1" class="edge backcross_triploid_1 hexaploid backcross">
<title>maternal&#45;&gt;maternal_gamete</title>
<path fill="none" stroke="black" d="M106.39,-319.72C107.05,-307.43 107.83,-292.75 108.5,-280.21"/>
<polygon fill="black" stroke="black" points="112.04,-280.59 109.07,-270.42 105.05,-280.22 112.04,-280.59"/>
<text text-anchor="middle" x="167.5" y="-290.8" font-family="Times,serif" font-size="14.00"> &#160;(gamete production)</text>
</g>
<!-- hybrid_outcome_1 -->
<g id="node5" class="node backcross_triploid_1 hexaploid backcross">
<title>hybrid_outcome_1</title>
<polygon fill="none" stroke="black" points="184,-196 96,-196 96,-160 184,-160 184,-196"/>
<text text-anchor="middle" x="140" y="-174.3" font-family="Times,serif" font-size="14.00">3ğ‘¥ F1 hybrid</text>
</g>
<!-- maternal_gamete&#45;&gt;hybrid_outcome_1 -->
<g id="edge3" class="edge backcross_triploid_1 hexaploid backcross">
<title>maternal_gamete&#45;&gt;hybrid_outcome_1</title>
<path fill="none" stroke="black" d="M117.11,-233.17C120.47,-225.22 124.57,-215.51 128.37,-206.52"/>
<polygon fill="black" stroke="black" points="131.96,-208.02 132.63,-197.45 125.51,-205.3 131.96,-208.02"/>
</g>
<!-- paternal -->
<g id="node3" class="node backcross_triploid_1 hexaploid backcross">
<title>paternal</title>
<ellipse fill="none" stroke="black" cx="239" cy="-346.87" rx="27" ry="26.74"/>
<text text-anchor="middle" x="239" y="-350.67" font-family="Times,serif" font-size="14.00">â™‚</text>
<text text-anchor="middle" x="239" y="-335.67" font-family="Times,serif" font-size="14.00">2ğ‘¥</text>
</g>
<!-- paternal_gamete -->
<g id="node4" class="node backcross_triploid_1 hexaploid backcross">
<title>paternal_gamete</title>
<ellipse fill="none" stroke="black" cx="236" cy="-251" rx="27" ry="18"/>
<text text-anchor="middle" x="236" y="-247.3" font-family="Times,serif" font-size="14.00">ğ‘¥</text>
</g>
<!-- paternal&#45;&gt;paternal_gamete -->
<g id="edge2" class="edge backcross_triploid_1 hexaploid backcross">
<title>paternal&#45;&gt;paternal_gamete</title>
<path fill="none" stroke="black" d="M238.16,-319.72C237.77,-307.43 237.3,-292.75 236.9,-280.21"/>
<polygon fill="black" stroke="black" points="240.37,-280.3 236.56,-270.42 233.38,-280.52 240.37,-280.3"/>
</g>
<!-- paternal_gamete&#45;&gt;hybrid_outcome_1 -->
<g id="edge4" class="edge backcross_triploid_1 hexaploid backcross">
<title>paternal_gamete&#45;&gt;hybrid_outcome_1</title>
<path fill="none" stroke="black" d="M218.39,-236.98C205.54,-227.47 187.75,-214.32 172.37,-202.94"/>
<polygon fill="black" stroke="black" points="174.77,-199.62 164.65,-196.49 170.6,-205.25 174.77,-199.62"/>
</g>
<!-- hybrid_outcome_3 -->
<g id="node8" class="node backcross_triploid_1 backcross onhover">
<title>hybrid_outcome_3</title>
<polygon fill="none" stroke="black" points="187,-36 81,-36 81,0 187,0 187,-36"/>
<text text-anchor="middle" x="134" y="-14.3" font-family="Times,serif" font-size="14.00">2ğ‘¥ F2 backcross</text>
</g>
<!-- paternal_gamete&#45;&gt;hybrid_outcome_3 -->
<g id="edge8" class="edge backcross_triploid_1 backcross">
<title>paternal_gamete&#45;&gt;hybrid_outcome_3</title>
<path fill="none" stroke="black" stroke-dasharray="5,2" d="M238.75,-232.62C243.13,-199.01 248.28,-123.97 217,-73 209.19,-60.27 197.11,-49.96 184.57,-41.89"/>
<polygon fill="black" stroke="black" points="186.79,-38.54 176.41,-36.41 183.19,-44.55 186.79,-38.54"/>
</g>
<!-- hybrid_outcome_1_gamete -->
<g id="node6" class="node backcross_triploid_1 backcross">
<title>hybrid_outcome_1_gamete</title>
<ellipse fill="none" stroke="black" cx="27" cy="-91" rx="27" ry="18"/>
<text text-anchor="middle" x="27" y="-87.3" font-family="Times,serif" font-size="14.00">ğ‘¥</text>
</g>
<!-- hybrid_outcome_1&#45;&gt;hybrid_outcome_1_gamete -->
<g id="edge6" class="edge backcross_triploid_1 backcross">
<title>hybrid_outcome_1&#45;&gt;hybrid_outcome_1_gamete</title>
<path fill="none" stroke="black" d="M95.71,-174.51C72.4,-170.72 45.51,-161.93 30,-142 25.14,-135.75 23.35,-127.62 23.07,-119.73"/>
<polygon fill="black" stroke="black" points="26.6,-120.11 23.52,-109.98 19.61,-119.82 26.6,-120.11"/>
<text text-anchor="middle" x="83.5" y="-130.8" font-family="Times,serif" font-size="14.00"> (reduced gamete) &#160;</text>
</g>
<!-- hybrid_outcome_2 -->
<g id="node7" class="node backcross_triploid_1 hexaploid onhover">
<title>hybrid_outcome_2</title>
<polygon fill="none" stroke="black" points="207.5,-109 78.5,-109 78.5,-73 207.5,-73 207.5,-109"/>
<text text-anchor="middle" x="143" y="-87.3" font-family="Times,serif" font-size="14.00">6ğ‘¥ polyploid species</text>
</g>
<!-- hybrid_outcome_1&#45;&gt;hybrid_outcome_2 -->
<g id="edge5" class="edge backcross_triploid_1 hexaploid">
<title>hybrid_outcome_1&#45;&gt;hybrid_outcome_2</title>
<path fill="none" stroke="black" d="M140.61,-159.8C141.01,-148.47 141.54,-133.36 142,-120.29"/>
<polygon fill="black" stroke="black" points="145.53,-120.58 142.38,-110.47 138.53,-120.34 145.53,-120.58"/>
</g>
<!-- hybrid_outcome_1_gamete&#45;&gt;hybrid_outcome_3 -->
<g id="edge7" class="edge backcross_triploid_1 backcross">
<title>hybrid_outcome_1_gamete&#45;&gt;hybrid_outcome_3</title>
<path fill="none" stroke="black" d="M45.64,-77.63C60.32,-67.89 81.21,-54.03 99,-42.23"/>
<polygon fill="black" stroke="black" points="100.56,-44.72 106.96,-36.28 96.69,-38.89 100.56,-44.72"/>
</g>
</g>
</svg>
