<?xml version="1.0" encoding="UTF-8" standalone="no"?>
<!DOCTYPE svg PUBLIC "-//W3C//DTD SVG 1.1//EN"
 "http://www.w3.org/Graphics/SVG/1.1/DTD/svg11.dtd">
<!-- Generated by graphviz version 9.0.0 (20230911.1827)
 -->
<!-- Title: Backcross triploid1 Pages: 1 -->
<svg width="245pt" height="406pt"
 viewBox="0.00 0.00 245.00 405.99" xmlns="http://www.w3.org/2000/svg" xmlns:xlink="http://www.w3.org/1999/xlink">
<g id="graph0" class="graph" transform="scale(1 1) rotate(0) translate(4 401.99)">
<title>Backcross triploid1</title>
<polygon fill="white" stroke="none" points="-4,4 -4,-401.99 241,-401.99 241,4 -4,4"/>
<!-- maternal -->
<g id="node1" class="node backcross_triploid_1 hexaploid backcross">
<title>maternal</title>
<ellipse fill="none" stroke="black" cx="45.5" cy="-365.82" rx="27" ry="32.17"/>
<text text-anchor="middle" x="45.5" y="-371.27" font-family="Arial" font-size="14.00">â™€</text>
<text text-anchor="middle" x="45.5" y="-355.52" font-family="Arial" font-size="14.00">4ğ‘¥</text>
</g>
<!-- maternal_gamete -->
<g id="node2" class="node backcross_triploid_1 hexaploid backcross">
<title>maternal_gamete</title>
<ellipse fill="none" stroke="black" cx="45.5" cy="-260.86" rx="27" ry="21.04"/>
<text text-anchor="middle" x="45.5" y="-258.43" font-family="Arial" font-size="14.00">2ğ‘¥</text>
</g>
<!-- maternal&#45;&gt;maternal_gamete -->
<g id="edge1" class="edge backcross_triploid_1 hexaploid backcross">
<title>maternal&#45;&gt;maternal_gamete</title>
<path fill="none" stroke="black" d="M45.5,-333.37C45.5,-320.73 45.5,-306.18 45.5,-293.52"/>
<polygon fill="black" stroke="black" points="49,-293.6 45.5,-283.6 42,-293.6 49,-293.6"/>
<text text-anchor="middle" x="110" y="-302.35" font-family="Arial" font-size="14.00"> &#160;(gamete production)</text>
</g>
<!-- hybrid_outcome_1 -->
<g id="node5" class="node backcross_triploid_1 hexaploid backcross">
<title>hybrid_outcome_1</title>
<polygon fill="none" stroke="black" points="91,-202.82 0,-202.82 0,-166.82 91,-166.82 91,-202.82"/>
<text text-anchor="middle" x="45.5" y="-182.4" font-family="Arial" font-size="14.00">3ğ‘¥ F1 hybrid</text>
</g>
<!-- maternal_gamete&#45;&gt;hybrid_outcome_1 -->
<g id="edge3" class="edge backcross_triploid_1 hexaploid backcross">
<title>maternal_gamete&#45;&gt;hybrid_outcome_1</title>
<path fill="none" stroke="black" d="M45.5,-239.63C45.5,-231.83 45.5,-222.77 45.5,-214.33"/>
<polygon fill="black" stroke="black" points="49,-214.53 45.5,-204.53 42,-214.53 49,-214.53"/>
</g>
<!-- paternal -->
<g id="node3" class="node backcross_triploid_1 hexaploid backcross">
<title>paternal</title>
<ellipse fill="none" stroke="black" cx="201.5" cy="-365.82" rx="27" ry="32.17"/>
<text text-anchor="middle" x="201.5" y="-371.27" font-family="Arial" font-size="14.00">â™‚</text>
<text text-anchor="middle" x="201.5" y="-355.52" font-family="Arial" font-size="14.00">2ğ‘¥</text>
</g>
<!-- paternal_gamete -->
<g id="node4" class="node backcross_triploid_1 hexaploid backcross">
<title>paternal_gamete</title>
<ellipse fill="none" stroke="black" cx="201.5" cy="-260.86" rx="27" ry="21.04"/>
<text text-anchor="middle" x="201.5" y="-258.43" font-family="Arial" font-size="14.00">ğ‘¥</text>
</g>
<!-- paternal&#45;&gt;paternal_gamete -->
<g id="edge2" class="edge backcross_triploid_1 hexaploid backcross">
<title>paternal&#45;&gt;paternal_gamete</title>
<path fill="none" stroke="black" d="M201.5,-333.37C201.5,-320.73 201.5,-306.18 201.5,-293.52"/>
<polygon fill="black" stroke="black" points="205,-293.6 201.5,-283.6 198,-293.6 205,-293.6"/>
</g>
<!-- paternal_gamete&#45;&gt;hybrid_outcome_1 -->
<g id="edge4" class="edge backcross_triploid_1 hexaploid backcross">
<title>paternal_gamete&#45;&gt;hybrid_outcome_1</title>
<path fill="none" stroke="black" d="M178.82,-249.09C156.24,-238.38 120.92,-221.62 92.31,-208.04"/>
<polygon fill="black" stroke="black" points="94.01,-204.97 83.47,-203.84 91,-211.29 94.01,-204.97"/>
</g>
<!-- hybrid_outcome_3 -->
<g id="node7" class="node backcross_triploid_1 backcross onhover">
<title>hybrid_outcome_3</title>
<polygon fill="none" stroke="black" points="237,-36 122,-36 122,0 237,0 237,-36"/>
<text text-anchor="middle" x="179.5" y="-15.57" font-family="Arial" font-size="14.00">2ğ‘¥ F1 backcross</text>
</g>
<!-- paternal_gamete&#45;&gt;hybrid_outcome_3 -->
<g id="edge7" class="edge backcross_triploid_1 backcross">
<title>paternal_gamete&#45;&gt;hybrid_outcome_3</title>
<path fill="none" stroke="black" d="M200.59,-239.63C199.38,-214.58 196.99,-170.63 193.5,-133.07 190.8,-103.94 186.6,-70.75 183.5,-47.71"/>
<polygon fill="black" stroke="black" points="186.98,-47.29 182.16,-37.86 180.04,-48.24 186.98,-47.29"/>
</g>
<!-- hybrid_outcome_1_gamete -->
<g id="node6" class="node backcross_triploid_1 backcross">
<title>hybrid_outcome_1_gamete</title>
<ellipse fill="none" stroke="black" cx="95.5" cy="-94.04" rx="27" ry="21.04"/>
<text text-anchor="middle" x="95.5" y="-91.61" font-family="Arial" font-size="14.00">ğ‘¥</text>
</g>
<!-- hybrid_outcome_1&#45;&gt;hybrid_outcome_1_gamete -->
<g id="edge5" class="edge backcross_triploid_1 backcross">
<title>hybrid_outcome_1&#45;&gt;hybrid_outcome_1_gamete</title>
<path fill="none" stroke="black" d="M38.78,-166.45C35.93,-156.19 34.37,-143.27 39.75,-133.07 44.68,-123.74 53.05,-116.26 61.82,-110.5"/>
<polygon fill="black" stroke="black" points="63.56,-113.53 70.43,-105.46 60.03,-107.49 63.56,-113.53"/>
<text text-anchor="middle" x="117.38" y="-135.52" font-family="Arial" font-size="14.00">â† (reduced gametes) â†’ </text>
</g>
<!-- hybrid_outcome_1_gamete&#45;&gt;hybrid_outcome_3 -->
<g id="edge6" class="edge backcross_triploid_1 backcross">
<title>hybrid_outcome_1_gamete&#45;&gt;hybrid_outcome_3</title>
<path fill="none" stroke="black" d="M112.9,-77.7C123.99,-67.92 138.61,-55.04 151.33,-43.83"/>
<polygon fill="black" stroke="black" points="153.44,-46.63 158.63,-37.4 148.81,-41.38 153.44,-46.63"/>
</g>
</g>
</svg>
