<?xml version="1.0" encoding="UTF-8" standalone="no"?>
<!DOCTYPE svg PUBLIC "-//W3C//DTD SVG 1.1//EN"
 "http://www.w3.org/Graphics/SVG/1.1/DTD/svg11.dtd">
<!-- Generated by graphviz version 9.0.0 (20230911.1827)
 -->
<!-- Title: Diploid&#45;tetraploid hybridisation3 Pages: 1 -->
<svg width="408pt" height="272pt"
 viewBox="0.00 0.00 407.64 271.98" xmlns="http://www.w3.org/2000/svg" xmlns:xlink="http://www.w3.org/1999/xlink">
<g id="graph0" class="graph" transform="scale(1 1) rotate(0) translate(4 267.98)">
<title>Diploid&#45;tetraploid hybridisation3</title>
<polygon fill="white" stroke="none" points="-4,4 -4,-267.98 403.64,-267.98 403.64,4 -4,4"/>
<!-- maternal -->
<g id="node1" class="node diploid_tetraploid_hybridisation3 hybrid_outcome endosperm_outcome">
<title>maternal</title>
<ellipse fill="none" stroke="black" cx="141.39" cy="-231.28" rx="27" ry="32.7"/>
<text text-anchor="middle" x="141.39" y="-237.1" font-family="Times,serif" font-size="14.00">â™€</text>
<text text-anchor="middle" x="141.39" y="-220.6" font-family="Times,serif" font-size="14.00">4ğ‘¥</text>
</g>
<!-- maternal_gamete -->
<g id="node2" class="node diploid_tetraploid_hybridisation3 hybrid_outcome">
<title>maternal_gamete</title>
<ellipse fill="none" stroke="black" cx="106.39" cy="-125.04" rx="27" ry="21.04"/>
<text text-anchor="middle" x="106.39" y="-122.61" font-family="Times,serif" font-size="14.00">2ğ‘¥</text>
</g>
<!-- maternal&#45;&gt;maternal_gamete -->
<g id="edge1" class="edge diploid_tetraploid_hybridisation3 hybrid_outcome">
<title>maternal&#45;&gt;maternal_gamete</title>
<path fill="none" stroke="black" d="M131.36,-200.41C126.75,-186.68 121.29,-170.42 116.66,-156.61"/>
<polygon fill="black" stroke="black" points="119.98,-155.5 113.47,-147.13 113.34,-157.73 119.98,-155.5"/>
<text text-anchor="middle" x="61.12" y="-176.47" font-family="Times,serif" font-size="14.00">(gamete production) &#160;&#160;</text>
</g>
<!-- endosperm -->
<g id="node6" class="node diploid_tetraploid_hybridisation3 endosperm_outcome onhover">
<title>endosperm</title>
<polygon fill="none" stroke="black" stroke-width="2" points="266.39,-46.25 172.39,-46.25 172.39,0 266.39,0 266.39,-46.25"/>
<text text-anchor="middle" x="219.39" y="-28.95" font-family="Times,serif" font-size="14.00">6ğ‘¥ endosperm</text>
<text text-anchor="middle" x="219.39" y="-7.2" font-family="Times,serif" font-size="14.00">(2â™€:1â™‚)</text>
</g>
<!-- maternal&#45;&gt;endosperm -->
<g id="edge5" class="edge diploid_tetraploid_hybridisation3 endosperm_outcome">
<title>maternal&#45;&gt;endosperm</title>
<path fill="none" stroke="black" d="M149.78,-199.76C157.18,-173.93 168.74,-136.09 181.39,-104 187.69,-88.02 195.74,-70.76 202.8,-56.38"/>
<polygon fill="black" stroke="black" points="205.73,-58.35 207.06,-47.84 199.47,-55.23 205.73,-58.35"/>
<text text-anchor="middle" x="163.82" y="-130.2" font-family="Times,serif" font-size="14.00">4ğ‘¥ &#160;</text>
</g>
<!-- hybrid_outcome -->
<g id="node5" class="node diploid_tetraploid_hybridisation3 hybrid_outcome onhover">
<title>hybrid_outcome</title>
<polygon fill="none" stroke="black" points="153.02,-41.12 65.77,-41.12 65.77,-5.12 153.02,-5.12 153.02,-41.12"/>
<text text-anchor="middle" x="109.39" y="-20.7" font-family="Times,serif" font-size="14.00">4ğ‘¥ F1 hybrid</text>
</g>
<!-- maternal_gamete&#45;&gt;hybrid_outcome -->
<g id="edge3" class="edge diploid_tetraploid_hybridisation3 hybrid_outcome">
<title>maternal_gamete&#45;&gt;hybrid_outcome</title>
<path fill="none" stroke="black" d="M107,-103.82C107.44,-89.04 108.05,-68.81 108.54,-52.43"/>
<polygon fill="black" stroke="black" points="112.03,-52.93 108.83,-42.83 105.03,-52.72 112.03,-52.93"/>
</g>
<!-- paternal -->
<g id="node3" class="node diploid_tetraploid_hybridisation3 hybrid_outcome endosperm_outcome">
<title>paternal</title>
<ellipse fill="none" stroke="black" cx="217.39" cy="-231.28" rx="27" ry="32.7"/>
<text text-anchor="middle" x="217.39" y="-237.1" font-family="Times,serif" font-size="14.00">â™‚</text>
<text text-anchor="middle" x="217.39" y="-220.6" font-family="Times,serif" font-size="14.00">2ğ‘¥</text>
</g>
<!-- paternal_gamete -->
<g id="node4" class="node diploid_tetraploid_hybridisation3 hybrid_outcome endosperm_outcome">
<title>paternal_gamete</title>
<ellipse fill="none" stroke="black" cx="217.39" cy="-125.04" rx="27" ry="21.04"/>
<text text-anchor="middle" x="217.39" y="-122.61" font-family="Times,serif" font-size="14.00">2ğ‘¥</text>
</g>
<!-- paternal&#45;&gt;paternal_gamete -->
<g id="edge2" class="edge diploid_tetraploid_hybridisation3 hybrid_outcome endosperm_outcome">
<title>paternal&#45;&gt;paternal_gamete</title>
<path fill="none" stroke="black" d="M217.39,-198.15C217.39,-185.23 217.39,-170.39 217.39,-157.54"/>
<polygon fill="black" stroke="black" points="220.89,-157.92 217.39,-147.92 213.89,-157.92 220.89,-157.92"/>
<text text-anchor="middle" x="308.52" y="-167.27" font-family="Times,serif" font-size="14.00"> &#160;&#160;(unreduced gamete production)</text>
</g>
<!-- paternal_gamete&#45;&gt;hybrid_outcome -->
<g id="edge4" class="edge diploid_tetraploid_hybridisation3 hybrid_outcome">
<title>paternal_gamete&#45;&gt;hybrid_outcome</title>
<path fill="none" stroke="black" d="M200.52,-108.43C183.36,-92.55 156.51,-67.72 136.39,-49.1"/>
<polygon fill="black" stroke="black" points="138.79,-46.55 129.07,-42.33 134.03,-51.69 138.79,-46.55"/>
</g>
<!-- paternal_gamete&#45;&gt;endosperm -->
<g id="edge6" class="edge diploid_tetraploid_hybridisation3 endosperm_outcome">
<title>paternal_gamete&#45;&gt;endosperm</title>
<path fill="none" stroke="black" d="M217.8,-103.82C218.06,-90.55 218.41,-72.88 218.72,-57.55"/>
<polygon fill="black" stroke="black" points="222.21,-57.98 218.91,-47.91 215.22,-57.84 222.21,-57.98"/>
<text text-anchor="middle" x="227.39" y="-72.7" font-family="Times,serif" font-size="14.00"> 2ğ‘¥</text>
</g>
</g>
</svg>
