<?xml version="1.0" encoding="UTF-8" standalone="no"?>
<!DOCTYPE svg PUBLIC "-//W3C//DTD SVG 1.1//EN"
 "http://www.w3.org/Graphics/SVG/1.1/DTD/svg11.dtd">
<!-- Generated by graphviz version 9.0.0 (20230911.1827)
 -->
<!-- Title: Diploid&#45;tetraploid hybridisation Pages: 1 -->
<svg width="297pt" height="255pt"
 viewBox="0.00 0.00 297.47 254.67" xmlns="http://www.w3.org/2000/svg" xmlns:xlink="http://www.w3.org/1999/xlink">
<g id="graph0" class="graph" transform="scale(1 1) rotate(0) translate(4 250.67)">
<title>Diploid&#45;tetraploid hybridisation</title>
<polygon fill="white" stroke="none" points="-4,4 -4,-250.67 293.47,-250.67 293.47,4 -4,4"/>
<!-- maternal -->
<g id="node1" class="node diploid_tetraploid_hybridisation1 hybrid_outcome endosperm_outcome">
<title>maternal</title>
<ellipse fill="none" stroke="black" cx="143.97" cy="-214.5" rx="27" ry="32.17"/>
<text text-anchor="middle" x="143.97" y="-219.95" font-family="Arial" font-size="14.00">â™€</text>
<text text-anchor="middle" x="143.97" y="-204.2" font-family="Arial" font-size="14.00">4ğ‘¥</text>
</g>
<!-- maternal_gamete -->
<g id="node2" class="node diploid_tetraploid_hybridisation1 hybrid_outcome">
<title>maternal_gamete</title>
<ellipse fill="none" stroke="black" cx="123.97" cy="-124.29" rx="27" ry="21.04"/>
<text text-anchor="middle" x="123.97" y="-121.86" font-family="Arial" font-size="14.00">2ğ‘¥</text>
</g>
<!-- maternal&#45;&gt;maternal_gamete -->
<g id="edge1" class="edge diploid_tetraploid_hybridisation1 hybrid_outcome">
<title>maternal&#45;&gt;maternal_gamete</title>
<path fill="none" stroke="black" d="M137.08,-183.14C135.14,-174.57 133.02,-165.24 131.07,-156.62"/>
<polygon fill="black" stroke="black" points="134.5,-155.9 128.87,-146.92 127.67,-157.44 134.5,-155.9"/>
<text text-anchor="middle" x="66.38" y="-166.48" font-family="Arial" font-size="14.00">(gamete production) &#160;&#160;</text>
</g>
<!-- endosperm -->
<g id="node6" class="node diploid_tetraploid_hybridisation1 endosperm_outcome onhover">
<title>endosperm</title>
<polygon fill="none" stroke="black" stroke-width="2" points="289.47,-45.5 186.47,-45.5 186.47,0 289.47,0 289.47,-45.5"/>
<text text-anchor="middle" x="237.97" y="-28.2" font-family="Arial" font-size="14.00">5ğ‘¥ endosperm</text>
<text text-anchor="middle" x="237.97" y="-6.45" font-family="Arial" font-size="14.00">(4â™€:1â™‚)</text>
</g>
<!-- maternal&#45;&gt;endosperm -->
<g id="edge5" class="edge diploid_tetraploid_hybridisation1 endosperm_outcome">
<title>maternal&#45;&gt;endosperm</title>
<path fill="none" stroke="black" d="M157.43,-186.31C174.48,-151.89 203.82,-92.68 221.98,-56.01"/>
<polygon fill="black" stroke="black" points="225.04,-57.73 226.34,-47.22 218.77,-54.62 225.04,-57.73"/>
<text text-anchor="middle" x="181.07" y="-124.35" font-family="Arial" font-size="14.00">4ğ‘¥ &#160;</text>
</g>
<!-- hybrid_outcome -->
<g id="node5" class="node diploid_tetraploid_hybridisation1 hybrid_outcome onhover">
<title>hybrid_outcome</title>
<polygon fill="none" stroke="black" points="168.47,-40.75 77.47,-40.75 77.47,-4.75 168.47,-4.75 168.47,-40.75"/>
<text text-anchor="middle" x="122.97" y="-20.32" font-family="Arial" font-size="14.00">3ğ‘¥ F1 hybrid</text>
</g>
<!-- maternal_gamete&#45;&gt;hybrid_outcome -->
<g id="edge3" class="edge diploid_tetraploid_hybridisation1 hybrid_outcome">
<title>maternal_gamete&#45;&gt;hybrid_outcome</title>
<path fill="none" stroke="black" d="M123.76,-103.14C123.62,-88.52 123.42,-68.52 123.25,-52.26"/>
<polygon fill="black" stroke="black" points="126.76,-52.68 123.16,-42.72 119.76,-52.75 126.76,-52.68"/>
</g>
<!-- paternal -->
<g id="node3" class="node diploid_tetraploid_hybridisation1 hybrid_outcome endosperm_outcome">
<title>paternal</title>
<ellipse fill="none" stroke="black" cx="234.97" cy="-214.5" rx="27" ry="32.17"/>
<text text-anchor="middle" x="234.97" y="-219.95" font-family="Arial" font-size="14.00">â™‚</text>
<text text-anchor="middle" x="234.97" y="-204.2" font-family="Arial" font-size="14.00">2ğ‘¥</text>
</g>
<!-- paternal_gamete -->
<g id="node4" class="node diploid_tetraploid_hybridisation1 hybrid_outcome endosperm_outcome">
<title>paternal_gamete</title>
<ellipse fill="none" stroke="black" cx="234.97" cy="-124.29" rx="27" ry="21.04"/>
<text text-anchor="middle" x="234.97" y="-121.86" font-family="Arial" font-size="14.00">ğ‘¥</text>
</g>
<!-- paternal&#45;&gt;paternal_gamete -->
<g id="edge2" class="edge diploid_tetraploid_hybridisation1 hybrid_outcome endosperm_outcome">
<title>paternal&#45;&gt;paternal_gamete</title>
<path fill="none" stroke="black" d="M234.97,-182.15C234.97,-174.03 234.97,-165.28 234.97,-157.14"/>
<polygon fill="black" stroke="black" points="238.47,-157.3 234.97,-147.3 231.47,-157.3 238.47,-157.3"/>
</g>
<!-- paternal_gamete&#45;&gt;hybrid_outcome -->
<g id="edge4" class="edge diploid_tetraploid_hybridisation1 hybrid_outcome">
<title>paternal_gamete&#45;&gt;hybrid_outcome</title>
<path fill="none" stroke="black" d="M217.47,-107.73C199.7,-91.95 171.92,-67.25 151.07,-48.72"/>
<polygon fill="black" stroke="black" points="153.53,-46.23 143.73,-42.21 148.88,-51.47 153.53,-46.23"/>
</g>
<!-- paternal_gamete&#45;&gt;endosperm -->
<g id="edge6" class="edge diploid_tetraploid_hybridisation1 endosperm_outcome">
<title>paternal_gamete&#45;&gt;endosperm</title>
<path fill="none" stroke="black" d="M235.57,-103.14C235.97,-89.93 236.5,-72.32 236.96,-57.05"/>
<polygon fill="black" stroke="black" points="240.45,-57.55 237.25,-47.45 233.45,-57.34 240.45,-57.55"/>
<text text-anchor="middle" x="241.59" y="-71.95" font-family="Arial" font-size="14.00"> ğ‘¥</text>
</g>
</g>
</svg>
