<?xml version="1.0" encoding="UTF-8" standalone="no"?>
<!DOCTYPE svg PUBLIC "-//W3C//DTD SVG 1.1//EN"
 "http://www.w3.org/Graphics/SVG/1.1/DTD/svg11.dtd">
<!-- Generated by graphviz version 8.0.1 (20230327.1645)
 -->
<!-- Title: Diploid&#45;tetraploid hybridisation Pages: 1 -->
<svg width="276pt" height="224pt"
 viewBox="0.00 0.00 275.62 223.74" xmlns="http://www.w3.org/2000/svg" xmlns:xlink="http://www.w3.org/1999/xlink">
<g id="graph0" class="graph" transform="scale(1 1) rotate(0) translate(4 219.74)">
<title>Diploid&#45;tetraploid hybridisation</title>
<polygon fill="white" stroke="none" points="-4,4 -4,-219.74 271.62,-219.74 271.62,4 -4,4"/>
<!-- maternal -->
<g id="node1" class="node diploid_tetraploid_hybridisation1 hybrid_outcome endosperm_outcome">
<title>maternal</title>
<ellipse fill="none" stroke="black" cx="142.12" cy="-188.87" rx="27" ry="26.74"/>
<text text-anchor="middle" x="142.12" y="-192.67" font-family="Times,serif" font-size="14.00">â™€</text>
<text text-anchor="middle" x="142.12" y="-177.67" font-family="Times,serif" font-size="14.00">4ğ‘¥</text>
</g>
<!-- maternal_gamete -->
<g id="node2" class="node diploid_tetraploid_hybridisation1 hybrid_outcome">
<title>maternal_gamete</title>
<ellipse fill="none" stroke="black" cx="107.12" cy="-107" rx="27" ry="18"/>
<text text-anchor="middle" x="107.12" y="-103.3" font-family="Times,serif" font-size="14.00">2ğ‘¥</text>
</g>
<!-- maternal&#45;&gt;maternal_gamete -->
<g id="edge1" class="edge diploid_tetraploid_hybridisation1 hybrid_outcome">
<title>maternal&#45;&gt;maternal_gamete</title>
<path fill="none" stroke="black" d="M131.62,-163.91C127.58,-154.69 122.94,-144.12 118.8,-134.67"/>
<polygon fill="black" stroke="black" points="121.61,-133.36 114.39,-125.6 115.2,-136.16 121.61,-133.36"/>
<text text-anchor="middle" x="61.5" y="-148.05" font-family="Times,serif" font-size="14.00">(gamete production) &#160;&#160;</text>
</g>
<!-- endosperm -->
<g id="node6" class="node diploid_tetraploid_hybridisation1 endosperm_outcome onhover">
<title>endosperm</title>
<polygon fill="none" stroke="black" stroke-width="2" points="267.62,-38 172.62,-38 172.62,0 267.62,0 267.62,-38"/>
<text text-anchor="middle" x="220.12" y="-22.8" font-family="Times,serif" font-size="14.00">5ğ‘¥ endosperm</text>
<text text-anchor="middle" x="220.12" y="-7.8" font-family="Times,serif" font-size="14.00">(4â™€:1â™‚)</text>
</g>
<!-- maternal&#45;&gt;endosperm -->
<g id="edge5" class="edge diploid_tetraploid_hybridisation1 endosperm_outcome">
<title>maternal&#45;&gt;endosperm</title>
<path fill="none" stroke="black" d="M151.03,-163.55C158.66,-143.32 170.27,-113.92 182.12,-89 188.7,-75.16 196.8,-60.22 203.83,-47.79"/>
<polygon fill="black" stroke="black" points="207.25,-49.85 209.18,-39.43 201.18,-46.37 207.25,-49.85"/>
<text text-anchor="middle" x="171.12" y="-92.79" font-family="Times,serif" font-size="14.00">4ğ‘¥ &#160;</text>
</g>
<!-- hybrid_outcome -->
<g id="node5" class="node diploid_tetraploid_hybridisation1 hybrid_outcome onhover">
<title>hybrid_outcome</title>
<polygon fill="none" stroke="black" points="153.12,-37 65.12,-37 65.12,-1 153.12,-1 153.12,-37"/>
<text text-anchor="middle" x="109.12" y="-15.3" font-family="Times,serif" font-size="14.00">3ğ‘¥ F1 hybrid</text>
</g>
<!-- maternal_gamete&#45;&gt;hybrid_outcome -->
<g id="edge3" class="edge diploid_tetraploid_hybridisation1 hybrid_outcome">
<title>maternal_gamete&#45;&gt;hybrid_outcome</title>
<path fill="none" stroke="black" d="M107.52,-88.6C107.79,-77.06 108.15,-61.65 108.46,-48.36"/>
<polygon fill="black" stroke="black" points="111.98,-48.46 108.71,-38.38 104.98,-48.29 111.98,-48.46"/>
</g>
<!-- paternal -->
<g id="node3" class="node diploid_tetraploid_hybridisation1 hybrid_outcome endosperm_outcome">
<title>paternal</title>
<ellipse fill="none" stroke="black" cx="218.12" cy="-188.87" rx="27" ry="26.74"/>
<text text-anchor="middle" x="218.12" y="-192.67" font-family="Times,serif" font-size="14.00">â™‚</text>
<text text-anchor="middle" x="218.12" y="-177.67" font-family="Times,serif" font-size="14.00">2ğ‘¥</text>
</g>
<!-- paternal_gamete -->
<g id="node4" class="node diploid_tetraploid_hybridisation1 hybrid_outcome endosperm_outcome">
<title>paternal_gamete</title>
<ellipse fill="none" stroke="black" cx="218.12" cy="-107" rx="27" ry="18"/>
<text text-anchor="middle" x="218.12" y="-103.3" font-family="Times,serif" font-size="14.00">ğ‘¥</text>
</g>
<!-- paternal&#45;&gt;paternal_gamete -->
<g id="edge2" class="edge diploid_tetraploid_hybridisation1 hybrid_outcome endosperm_outcome">
<title>paternal&#45;&gt;paternal_gamete</title>
<path fill="none" stroke="black" d="M218.12,-161.72C218.12,-153.46 218.12,-144.31 218.12,-135.93"/>
<polygon fill="black" stroke="black" points="221.62,-136.15 218.12,-126.15 214.62,-136.15 221.62,-136.15"/>
</g>
<!-- paternal_gamete&#45;&gt;hybrid_outcome -->
<g id="edge4" class="edge diploid_tetraploid_hybridisation1 hybrid_outcome">
<title>paternal_gamete&#45;&gt;hybrid_outcome</title>
<path fill="none" stroke="black" d="M201.09,-92.56C184.6,-79.56 159.26,-59.56 139.35,-43.85"/>
<polygon fill="black" stroke="black" points="141.93,-40.64 131.91,-37.2 137.6,-46.14 141.93,-40.64"/>
</g>
<!-- paternal_gamete&#45;&gt;endosperm -->
<g id="edge6" class="edge diploid_tetraploid_hybridisation1 endosperm_outcome">
<title>paternal_gamete&#45;&gt;endosperm</title>
<path fill="none" stroke="black" d="M218.52,-88.6C218.78,-77.28 219.13,-62.26 219.44,-49.15"/>
<polygon fill="black" stroke="black" points="222.96,-49.35 219.69,-39.27 215.96,-49.18 222.96,-49.35"/>
<text text-anchor="middle" x="225.12" y="-59.8" font-family="Times,serif" font-size="14.00"> ğ‘¥</text>
</g>
</g>
</svg>
