<?xml version="1.0" encoding="UTF-8" standalone="no"?>
<!DOCTYPE svg PUBLIC "-//W3C//DTD SVG 1.1//EN"
 "http://www.w3.org/Graphics/SVG/1.1/DTD/svg11.dtd">
<!-- Generated by graphviz version 9.0.0 (20230911.1827)
 -->
<!-- Title: Diploid&#45;tetraploid hybridisation3 Pages: 1 -->
<svg width="443pt" height="269pt"
 viewBox="0.00 0.00 443.05 269.42" xmlns="http://www.w3.org/2000/svg" xmlns:xlink="http://www.w3.org/1999/xlink">
<g id="graph0" class="graph" transform="scale(1 1) rotate(0) translate(4 265.42)">
<title>Diploid&#45;tetraploid hybridisation3</title>
<polygon fill="white" stroke="none" points="-4,4 -4,-265.42 439.05,-265.42 439.05,4 -4,4"/>
<!-- maternal -->
<g id="node1" class="node diploid_tetraploid_hybridisation4 hybrid_outcome endosperm_outcome">
<title>maternal</title>
<ellipse fill="none" stroke="black" cx="143.8" cy="-229.25" rx="27" ry="32.17"/>
<text text-anchor="middle" x="143.8" y="-234.7" font-family="Arial" font-size="14.00">â™€</text>
<text text-anchor="middle" x="143.8" y="-218.95" font-family="Arial" font-size="14.00">2ğ‘¥</text>
</g>
<!-- maternal_gamete -->
<g id="node2" class="node diploid_tetraploid_hybridisation4 hybrid_outcome">
<title>maternal_gamete</title>
<ellipse fill="none" stroke="black" cx="123.8" cy="-124.29" rx="27" ry="21.04"/>
<text text-anchor="middle" x="123.8" y="-121.86" font-family="Arial" font-size="14.00">ğ‘¥</text>
</g>
<!-- maternal&#45;&gt;maternal_gamete -->
<g id="edge1" class="edge diploid_tetraploid_hybridisation4 hybrid_outcome">
<title>maternal&#45;&gt;maternal_gamete</title>
<path fill="none" stroke="black" d="M137.85,-197.63C135.35,-184.74 132.44,-169.75 129.92,-156.77"/>
<polygon fill="black" stroke="black" points="133.37,-156.17 128.02,-147.02 126.49,-157.5 133.37,-156.17"/>
<text text-anchor="middle" x="66.38" y="-173.81" font-family="Arial" font-size="14.00">(gamete production) &#160;&#160;</text>
</g>
<!-- endosperm -->
<g id="node6" class="node diploid_tetraploid_hybridisation4 endosperm_outcome onhover">
<title>endosperm</title>
<polygon fill="none" stroke="black" stroke-width="2" points="289.3,-45.5 186.3,-45.5 186.3,0 289.3,0 289.3,-45.5"/>
<text text-anchor="middle" x="237.8" y="-28.2" font-family="Arial" font-size="14.00">6ğ‘¥ endosperm</text>
<text text-anchor="middle" x="237.8" y="-6.45" font-family="Arial" font-size="14.00">(1â™€:2â™‚)</text>
</g>
<!-- maternal&#45;&gt;endosperm -->
<g id="edge5" class="edge diploid_tetraploid_hybridisation4 endosperm_outcome">
<title>maternal&#45;&gt;endosperm</title>
<path fill="none" stroke="black" d="M155.7,-200.3C166.63,-174.86 183.4,-136.36 198.8,-103.25 206.1,-87.55 214.53,-70.27 221.68,-55.84"/>
<polygon fill="black" stroke="black" points="224.63,-57.77 225.95,-47.26 218.36,-54.65 224.63,-57.77"/>
<text text-anchor="middle" x="178.61" y="-131.17" font-family="Arial" font-size="14.00">2ğ‘¥ &#160;</text>
</g>
<!-- hybrid_outcome -->
<g id="node5" class="node diploid_tetraploid_hybridisation4 hybrid_outcome onhover">
<title>hybrid_outcome</title>
<polygon fill="none" stroke="black" points="168.3,-40.75 77.3,-40.75 77.3,-4.75 168.3,-4.75 168.3,-40.75"/>
<text text-anchor="middle" x="122.8" y="-20.32" font-family="Arial" font-size="14.00">5ğ‘¥ F1 hybrid</text>
</g>
<!-- maternal_gamete&#45;&gt;hybrid_outcome -->
<g id="edge3" class="edge diploid_tetraploid_hybridisation4 hybrid_outcome">
<title>maternal_gamete&#45;&gt;hybrid_outcome</title>
<path fill="none" stroke="black" d="M123.6,-103.14C123.45,-88.52 123.25,-68.52 123.09,-52.26"/>
<polygon fill="black" stroke="black" points="126.59,-52.68 122.99,-42.72 119.59,-52.75 126.59,-52.68"/>
</g>
<!-- paternal -->
<g id="node3" class="node diploid_tetraploid_hybridisation4 hybrid_outcome endosperm_outcome">
<title>paternal</title>
<ellipse fill="none" stroke="black" cx="234.8" cy="-229.25" rx="27" ry="32.17"/>
<text text-anchor="middle" x="234.8" y="-234.7" font-family="Arial" font-size="14.00">â™‚</text>
<text text-anchor="middle" x="234.8" y="-218.95" font-family="Arial" font-size="14.00">4ğ‘¥</text>
</g>
<!-- paternal_gamete -->
<g id="node4" class="node diploid_tetraploid_hybridisation4 hybrid_outcome endosperm_outcome">
<title>paternal_gamete</title>
<ellipse fill="none" stroke="black" cx="234.8" cy="-124.29" rx="27" ry="21.04"/>
<text text-anchor="middle" x="234.8" y="-121.86" font-family="Arial" font-size="14.00">4ğ‘¥</text>
</g>
<!-- paternal&#45;&gt;paternal_gamete -->
<g id="edge2" class="edge diploid_tetraploid_hybridisation4 hybrid_outcome endosperm_outcome">
<title>paternal&#45;&gt;paternal_gamete</title>
<path fill="none" stroke="black" d="M234.8,-196.8C234.8,-184.16 234.8,-169.61 234.8,-156.95"/>
<polygon fill="black" stroke="black" points="238.3,-157.03 234.8,-147.03 231.3,-157.03 238.3,-157.03"/>
<text text-anchor="middle" x="334.93" y="-165.77" font-family="Arial" font-size="14.00"> &#160;&#160;(unreduced gamete production)</text>
</g>
<!-- paternal_gamete&#45;&gt;hybrid_outcome -->
<g id="edge4" class="edge diploid_tetraploid_hybridisation4 hybrid_outcome">
<title>paternal_gamete&#45;&gt;hybrid_outcome</title>
<path fill="none" stroke="black" d="M217.3,-107.73C199.54,-91.95 171.75,-67.25 150.9,-48.72"/>
<polygon fill="black" stroke="black" points="153.37,-46.23 143.57,-42.21 148.72,-51.47 153.37,-46.23"/>
</g>
<!-- paternal_gamete&#45;&gt;endosperm -->
<g id="edge6" class="edge diploid_tetraploid_hybridisation4 endosperm_outcome">
<title>paternal_gamete&#45;&gt;endosperm</title>
<path fill="none" stroke="black" d="M235.41,-103.14C235.81,-89.93 236.34,-72.32 236.8,-57.05"/>
<polygon fill="black" stroke="black" points="240.28,-57.55 237.09,-47.45 233.29,-57.34 240.28,-57.55"/>
<text text-anchor="middle" x="245.18" y="-71.95" font-family="Arial" font-size="14.00"> 4ğ‘¥</text>
</g>
</g>
</svg>
