<?xml version="1.0" encoding="UTF-8" standalone="no"?>
<!DOCTYPE svg PUBLIC "-//W3C//DTD SVG 1.1//EN"
 "http://www.w3.org/Graphics/SVG/1.1/DTD/svg11.dtd">
<!-- Generated by graphviz version 9.0.0 (20230911.1827)
 -->
<!-- Title: Diploid&#45;tetraploid hybridisation2 Pages: 1 -->
<svg width="275pt" height="256pt"
 viewBox="0.00 0.00 274.54 256.48" xmlns="http://www.w3.org/2000/svg" xmlns:xlink="http://www.w3.org/1999/xlink">
<g id="graph0" class="graph" transform="scale(1 1) rotate(0) translate(4 252.48)">
<title>Diploid&#45;tetraploid hybridisation2</title>
<polygon fill="white" stroke="none" points="-4,4 -4,-252.48 270.54,-252.48 270.54,4 -4,4"/>
<!-- maternal -->
<g id="node1" class="node diploid_tetraploid_hybridisation2 hybrid_outcome endosperm_outcome">
<title>maternal</title>
<ellipse fill="none" stroke="black" cx="141.54" cy="-215.78" rx="27" ry="32.7"/>
<text text-anchor="middle" x="141.54" y="-221.6" font-family="Times,serif" font-size="14.00">â™€</text>
<text text-anchor="middle" x="141.54" y="-205.1" font-family="Times,serif" font-size="14.00">2ğ‘¥</text>
</g>
<!-- maternal_gamete -->
<g id="node2" class="node diploid_tetraploid_hybridisation2 hybrid_outcome">
<title>maternal_gamete</title>
<ellipse fill="none" stroke="black" cx="106.54" cy="-125.04" rx="27" ry="21.04"/>
<text text-anchor="middle" x="106.54" y="-122.61" font-family="Times,serif" font-size="14.00">ğ‘¥</text>
</g>
<!-- maternal&#45;&gt;maternal_gamete -->
<g id="edge1" class="edge diploid_tetraploid_hybridisation2 hybrid_outcome">
<title>maternal&#45;&gt;maternal_gamete</title>
<path fill="none" stroke="black" d="M130.08,-185.72C126.35,-176.27 122.21,-165.77 118.46,-156.24"/>
<polygon fill="black" stroke="black" points="121.75,-155.05 114.82,-147.04 115.24,-157.62 121.75,-155.05"/>
<text text-anchor="middle" x="61.12" y="-169.07" font-family="Times,serif" font-size="14.00">(gamete production) &#160;&#160;</text>
</g>
<!-- endosperm -->
<g id="node6" class="node diploid_tetraploid_hybridisation2 endosperm_outcome onhover">
<title>endosperm</title>
<polygon fill="none" stroke="black" stroke-width="2" points="266.54,-46.25 172.54,-46.25 172.54,0 266.54,0 266.54,-46.25"/>
<text text-anchor="middle" x="219.54" y="-28.95" font-family="Times,serif" font-size="14.00">4ğ‘¥ endosperm</text>
<text text-anchor="middle" x="219.54" y="-7.2" font-family="Times,serif" font-size="14.00">(1â™€:1â™‚)</text>
</g>
<!-- maternal&#45;&gt;endosperm -->
<g id="edge5" class="edge diploid_tetraploid_hybridisation2 endosperm_outcome">
<title>maternal&#45;&gt;endosperm</title>
<path fill="none" stroke="black" d="M151.46,-184.85C159.12,-162.39 170.28,-130.99 181.54,-104 188.16,-88.15 196.24,-70.9 203.26,-56.5"/>
<polygon fill="black" stroke="black" points="206.19,-58.46 207.47,-47.94 199.91,-55.37 206.19,-58.46"/>
<text text-anchor="middle" x="170.67" y="-112.44" font-family="Times,serif" font-size="14.00">2ğ‘¥ &#160;</text>
</g>
<!-- hybrid_outcome -->
<g id="node5" class="node diploid_tetraploid_hybridisation2 hybrid_outcome onhover">
<title>hybrid_outcome</title>
<polygon fill="none" stroke="black" points="153.17,-41.12 65.92,-41.12 65.92,-5.12 153.17,-5.12 153.17,-41.12"/>
<text text-anchor="middle" x="109.54" y="-20.7" font-family="Times,serif" font-size="14.00">3ğ‘¥ F1 hybrid</text>
</g>
<!-- maternal_gamete&#45;&gt;hybrid_outcome -->
<g id="edge3" class="edge diploid_tetraploid_hybridisation2 hybrid_outcome">
<title>maternal_gamete&#45;&gt;hybrid_outcome</title>
<path fill="none" stroke="black" d="M107.15,-103.82C107.59,-89.04 108.2,-68.81 108.69,-52.43"/>
<polygon fill="black" stroke="black" points="112.18,-52.93 108.98,-42.83 105.18,-52.72 112.18,-52.93"/>
</g>
<!-- paternal -->
<g id="node3" class="node diploid_tetraploid_hybridisation2 hybrid_outcome endosperm_outcome">
<title>paternal</title>
<ellipse fill="none" stroke="black" cx="217.54" cy="-215.78" rx="27" ry="32.7"/>
<text text-anchor="middle" x="217.54" y="-221.6" font-family="Times,serif" font-size="14.00">â™‚</text>
<text text-anchor="middle" x="217.54" y="-205.1" font-family="Times,serif" font-size="14.00">4ğ‘¥</text>
</g>
<!-- paternal_gamete -->
<g id="node4" class="node diploid_tetraploid_hybridisation2 hybrid_outcome endosperm_outcome">
<title>paternal_gamete</title>
<ellipse fill="none" stroke="black" cx="217.54" cy="-125.04" rx="27" ry="21.04"/>
<text text-anchor="middle" x="217.54" y="-122.61" font-family="Times,serif" font-size="14.00">2ğ‘¥</text>
</g>
<!-- paternal&#45;&gt;paternal_gamete -->
<g id="edge2" class="edge diploid_tetraploid_hybridisation2 hybrid_outcome endosperm_outcome">
<title>paternal&#45;&gt;paternal_gamete</title>
<path fill="none" stroke="black" d="M217.54,-182.74C217.54,-174.6 217.54,-165.86 217.54,-157.74"/>
<polygon fill="black" stroke="black" points="221.04,-157.94 217.54,-147.94 214.04,-157.94 221.04,-157.94"/>
</g>
<!-- paternal_gamete&#45;&gt;hybrid_outcome -->
<g id="edge4" class="edge diploid_tetraploid_hybridisation2 hybrid_outcome">
<title>paternal_gamete&#45;&gt;hybrid_outcome</title>
<path fill="none" stroke="black" d="M200.67,-108.43C183.51,-92.55 156.66,-67.72 136.54,-49.1"/>
<polygon fill="black" stroke="black" points="138.94,-46.55 129.22,-42.33 134.18,-51.69 138.94,-46.55"/>
</g>
<!-- paternal_gamete&#45;&gt;endosperm -->
<g id="edge6" class="edge diploid_tetraploid_hybridisation2 endosperm_outcome">
<title>paternal_gamete&#45;&gt;endosperm</title>
<path fill="none" stroke="black" d="M217.95,-103.82C218.21,-90.55 218.56,-72.88 218.87,-57.55"/>
<polygon fill="black" stroke="black" points="222.36,-57.98 219.06,-47.91 215.37,-57.84 222.36,-57.98"/>
<text text-anchor="middle" x="227.54" y="-72.7" font-family="Times,serif" font-size="14.00"> 2ğ‘¥</text>
</g>
</g>
</svg>
