<?xml version="1.0" encoding="UTF-8" standalone="no"?>
<!DOCTYPE svg PUBLIC "-//W3C//DTD SVG 1.1//EN"
 "http://www.w3.org/Graphics/SVG/1.1/DTD/svg11.dtd">
<!-- Generated by graphviz version 8.0.1 (20230327.1645)
 -->
<!-- Title: Diploid&#45;tetraploid hybridisation Pages: 1 -->
<svg width="272pt" height="224pt"
 viewBox="0.00 0.00 271.62 223.74" xmlns="http://www.w3.org/2000/svg" xmlns:xlink="http://www.w3.org/1999/xlink">
<g id="graph0" class="graph" transform="scale(1 1) rotate(0) translate(4 219.74)">
<title>Diploid&#45;tetraploid hybridisation</title>
<polygon fill="white" stroke="none" points="-4,4 -4,-219.74 267.62,-219.74 267.62,4 -4,4"/>
<!-- â™€
4ğ‘¥ -->
<g id="node1" class="node">
<title>â™€
4ğ‘¥</title>
<ellipse fill="none" stroke="black" cx="138.12" cy="-188.87" rx="27" ry="26.74"/>
<text text-anchor="middle" x="138.12" y="-192.67" font-family="Times,serif" font-size="14.00">â™€</text>
<text text-anchor="middle" x="138.12" y="-177.67" font-family="Times,serif" font-size="14.00">4ğ‘¥</text>
</g>
<!-- 2ğ‘¥ -->
<g id="node2" class="node">
<title>2ğ‘¥</title>
<ellipse fill="none" stroke="black" cx="103.12" cy="-107" rx="27" ry="18"/>
<text text-anchor="middle" x="103.12" y="-103.3" font-family="Times,serif" font-size="14.00">2ğ‘¥</text>
</g>
<!-- â™€
4ğ‘¥&#45;&gt;2ğ‘¥ -->
<g id="edge1" class="edge">
<title>â™€
4ğ‘¥&#45;&gt;2ğ‘¥</title>
<path fill="none" stroke="black" d="M127.62,-163.91C123.58,-154.69 118.94,-144.12 114.8,-134.67"/>
<polygon fill="black" stroke="black" points="117.61,-133.36 110.39,-125.6 111.2,-136.16 117.61,-133.36"/>
<text text-anchor="middle" x="59.5" y="-148.05" font-family="Times,serif" font-size="14.00"> &#160;(gamete production)</text>
</g>
<!-- 5ğ‘¥ endosperm
(4â™€:1â™‚) -->
<g id="node6" class="node">
<title>5ğ‘¥ endosperm
(4â™€:1â™‚)</title>
<polygon fill="none" stroke="black" stroke-width="2" points="263.62,-38 168.62,-38 168.62,0 263.62,0 263.62,-38"/>
<text text-anchor="middle" x="216.12" y="-22.8" font-family="Times,serif" font-size="14.00">5ğ‘¥ endosperm</text>
<text text-anchor="middle" x="216.12" y="-7.8" font-family="Times,serif" font-size="14.00">(4â™€:1â™‚)</text>
</g>
<!-- â™€
4ğ‘¥&#45;&gt;5ğ‘¥ endosperm
(4â™€:1â™‚) -->
<g id="edge6" class="edge">
<title>â™€
4ğ‘¥&#45;&gt;5ğ‘¥ endosperm
(4â™€:1â™‚)</title>
<path fill="none" stroke="black" d="M147.03,-163.55C154.66,-143.32 166.27,-113.92 178.12,-89 184.7,-75.16 192.8,-60.22 199.83,-47.79"/>
<polygon fill="black" stroke="black" points="203.25,-49.85 205.18,-39.43 197.18,-46.37 203.25,-49.85"/>
<text text-anchor="middle" x="167.12" y="-92.79" font-family="Times,serif" font-size="14.00">4ğ‘¥ &#160;</text>
</g>
<!-- 3ğ‘¥ F1 hybrid -->
<g id="node5" class="node">
<title>3ğ‘¥ F1 hybrid</title>
<polygon fill="none" stroke="black" points="149.12,-37 61.12,-37 61.12,-1 149.12,-1 149.12,-37"/>
<text text-anchor="middle" x="105.12" y="-15.3" font-family="Times,serif" font-size="14.00">3ğ‘¥ F1 hybrid</text>
</g>
<!-- 2ğ‘¥&#45;&gt;3ğ‘¥ F1 hybrid -->
<g id="edge4" class="edge">
<title>2ğ‘¥&#45;&gt;3ğ‘¥ F1 hybrid</title>
<path fill="none" stroke="black" d="M103.52,-88.6C103.79,-77.06 104.15,-61.65 104.46,-48.36"/>
<polygon fill="black" stroke="black" points="107.98,-48.46 104.71,-38.38 100.98,-48.29 107.98,-48.46"/>
</g>
<!-- â™‚
2ğ‘¥ -->
<g id="node3" class="node">
<title>â™‚
2ğ‘¥</title>
<ellipse fill="none" stroke="black" cx="214.12" cy="-188.87" rx="27" ry="26.74"/>
<text text-anchor="middle" x="214.12" y="-192.67" font-family="Times,serif" font-size="14.00">â™‚</text>
<text text-anchor="middle" x="214.12" y="-177.67" font-family="Times,serif" font-size="14.00">2ğ‘¥</text>
</g>
<!-- ğ‘¥ -->
<g id="node4" class="node">
<title>ğ‘¥</title>
<ellipse fill="none" stroke="black" cx="214.12" cy="-107" rx="27" ry="18"/>
<text text-anchor="middle" x="214.12" y="-103.3" font-family="Times,serif" font-size="14.00">ğ‘¥</text>
</g>
<!-- â™‚
2ğ‘¥&#45;&gt;ğ‘¥ -->
<g id="edge2" class="edge">
<title>â™‚
2ğ‘¥&#45;&gt;ğ‘¥</title>
<path fill="none" stroke="black" d="M214.12,-161.72C214.12,-153.46 214.12,-144.31 214.12,-135.93"/>
<polygon fill="black" stroke="black" points="217.62,-136.15 214.12,-126.15 210.62,-136.15 217.62,-136.15"/>
</g>
<!-- ğ‘¥&#45;&gt;3ğ‘¥ F1 hybrid -->
<g id="edge3" class="edge">
<title>ğ‘¥&#45;&gt;3ğ‘¥ F1 hybrid</title>
<path fill="none" stroke="black" d="M197.09,-92.56C180.6,-79.56 155.26,-59.56 135.35,-43.85"/>
<polygon fill="black" stroke="black" points="137.93,-40.64 127.91,-37.2 133.6,-46.14 137.93,-40.64"/>
</g>
<!-- ğ‘¥&#45;&gt;5ğ‘¥ endosperm
(4â™€:1â™‚) -->
<g id="edge5" class="edge">
<title>ğ‘¥&#45;&gt;5ğ‘¥ endosperm
(4â™€:1â™‚)</title>
<path fill="none" stroke="black" d="M214.52,-88.6C214.78,-77.28 215.13,-62.26 215.44,-49.15"/>
<polygon fill="black" stroke="black" points="218.96,-49.35 215.69,-39.27 211.96,-49.18 218.96,-49.35"/>
<text text-anchor="middle" x="219.12" y="-59.8" font-family="Times,serif" font-size="14.00">ğ‘¥</text>
</g>
</g>
</svg>
