<?xml version="1.0" encoding="UTF-8" standalone="no"?>
<!DOCTYPE svg PUBLIC "-//W3C//DTD SVG 1.1//EN"
 "http://www.w3.org/Graphics/SVG/1.1/DTD/svg11.dtd">
<!-- Generated by graphviz version 8.0.1 (20230327.1645)
 -->
<!-- Title: Diploid&#45;tetraploid hybridisation Pages: 1 -->
<svg width="405pt" height="238pt"
 viewBox="0.00 0.00 404.97 237.74" xmlns="http://www.w3.org/2000/svg" xmlns:xlink="http://www.w3.org/1999/xlink">
<g id="graph0" class="graph" transform="scale(1 1) rotate(0) translate(4 233.74)">
<title>Diploid&#45;tetraploid hybridisation</title>
<polygon fill="white" stroke="none" points="-4,4 -4,-233.74 400.97,-233.74 400.97,4 -4,4"/>
<!-- â™€
4ğ‘¥ -->
<g id="node1" class="node">
<title>â™€
4ğ‘¥</title>
<ellipse fill="none" stroke="black" cx="141.97" cy="-202.87" rx="27" ry="26.74"/>
<text text-anchor="middle" x="141.97" y="-206.67" font-family="Times,serif" font-size="14.00">â™€</text>
<text text-anchor="middle" x="141.97" y="-191.67" font-family="Times,serif" font-size="14.00">4ğ‘¥</text>
</g>
<!-- 2ğ‘¥  -->
<g id="node2" class="node">
<title>2ğ‘¥ </title>
<ellipse fill="none" stroke="black" cx="106.97" cy="-107" rx="27" ry="18"/>
<text text-anchor="middle" x="106.97" y="-103.3" font-family="Times,serif" font-size="14.00">2ğ‘¥ </text>
</g>
<!-- â™€
4ğ‘¥&#45;&gt;2ğ‘¥  -->
<g id="edge1" class="edge">
<title>â™€
4ğ‘¥&#45;&gt;2ğ‘¥ </title>
<path fill="none" stroke="black" d="M132.77,-177.21C127.91,-164.18 121.94,-148.17 116.97,-134.83"/>
<polygon fill="black" stroke="black" points="120.01,-133.96 113.23,-125.81 113.45,-136.4 120.01,-133.96"/>
<text text-anchor="middle" x="61.5" y="-154.8" font-family="Times,serif" font-size="14.00">(gamete production) &#160;&#160;</text>
</g>
<!-- 6ğ‘¥ endosperm
(2â™€:1â™‚) -->
<g id="node6" class="node">
<title>6ğ‘¥ endosperm
(2â™€:1â™‚)</title>
<polygon fill="none" stroke="black" stroke-width="2" points="267.47,-38 172.47,-38 172.47,0 267.47,0 267.47,-38"/>
<text text-anchor="middle" x="219.97" y="-22.8" font-family="Times,serif" font-size="14.00">6ğ‘¥ endosperm</text>
<text text-anchor="middle" x="219.97" y="-7.8" font-family="Times,serif" font-size="14.00">(2â™€:1â™‚)</text>
</g>
<!-- â™€
4ğ‘¥&#45;&gt;6ğ‘¥ endosperm
(2â™€:1â™‚) -->
<g id="edge5" class="edge">
<title>â™€
4ğ‘¥&#45;&gt;6ğ‘¥ endosperm
(2â™€:1â™‚)</title>
<path fill="none" stroke="black" d="M149.57,-176.75C156.89,-153.57 168.77,-118.4 181.97,-89 188.24,-75.02 196.3,-60.06 203.39,-47.66"/>
<polygon fill="black" stroke="black" points="206.81,-49.73 208.8,-39.32 200.76,-46.21 206.81,-49.73"/>
<text text-anchor="middle" x="163.85" y="-109.47" font-family="Times,serif" font-size="14.00">4ğ‘¥ &#160;</text>
</g>
<!-- 4ğ‘¥ F1 hybrid -->
<g id="node5" class="node">
<title>4ğ‘¥ F1 hybrid</title>
<polygon fill="none" stroke="black" points="152.97,-37 64.97,-37 64.97,-1 152.97,-1 152.97,-37"/>
<text text-anchor="middle" x="108.97" y="-15.3" font-family="Times,serif" font-size="14.00">4ğ‘¥ F1 hybrid</text>
</g>
<!-- 2ğ‘¥ &#45;&gt;4ğ‘¥ F1 hybrid -->
<g id="edge3" class="edge">
<title>2ğ‘¥ &#45;&gt;4ğ‘¥ F1 hybrid</title>
<path fill="none" stroke="black" d="M107.37,-88.6C107.64,-77.06 108,-61.65 108.31,-48.36"/>
<polygon fill="black" stroke="black" points="111.83,-48.46 108.56,-38.38 104.83,-48.29 111.83,-48.46"/>
</g>
<!-- â™‚
2ğ‘¥ -->
<g id="node3" class="node">
<title>â™‚
2ğ‘¥</title>
<ellipse fill="none" stroke="black" cx="217.97" cy="-202.87" rx="27" ry="26.74"/>
<text text-anchor="middle" x="217.97" y="-206.67" font-family="Times,serif" font-size="14.00">â™‚</text>
<text text-anchor="middle" x="217.97" y="-191.67" font-family="Times,serif" font-size="14.00">2ğ‘¥</text>
</g>
<!-- 2ğ‘¥ -->
<g id="node4" class="node">
<title>2ğ‘¥</title>
<ellipse fill="none" stroke="black" cx="217.97" cy="-107" rx="27" ry="18"/>
<text text-anchor="middle" x="217.97" y="-103.3" font-family="Times,serif" font-size="14.00">2ğ‘¥</text>
</g>
<!-- â™‚
2ğ‘¥&#45;&gt;2ğ‘¥ -->
<g id="edge2" class="edge">
<title>â™‚
2ğ‘¥&#45;&gt;2ğ‘¥</title>
<path fill="none" stroke="black" d="M217.97,-175.72C217.97,-163.43 217.97,-148.75 217.97,-136.21"/>
<polygon fill="black" stroke="black" points="221.47,-136.42 217.97,-126.42 214.47,-136.42 221.47,-136.42"/>
<text text-anchor="middle" x="307.47" y="-146.8" font-family="Times,serif" font-size="14.00"> &#160;(unreduced gamete production)</text>
</g>
<!-- 2ğ‘¥&#45;&gt;4ğ‘¥ F1 hybrid -->
<g id="edge4" class="edge">
<title>2ğ‘¥&#45;&gt;4ğ‘¥ F1 hybrid</title>
<path fill="none" stroke="black" d="M200.93,-92.56C184.45,-79.56 159.11,-59.56 139.2,-43.85"/>
<polygon fill="black" stroke="black" points="141.78,-40.64 131.76,-37.2 137.44,-46.14 141.78,-40.64"/>
</g>
<!-- 2ğ‘¥&#45;&gt;6ğ‘¥ endosperm
(2â™€:1â™‚) -->
<g id="edge6" class="edge">
<title>2ğ‘¥&#45;&gt;6ğ‘¥ endosperm
(2â™€:1â™‚)</title>
<path fill="none" stroke="black" d="M218.37,-88.6C218.63,-77.28 218.98,-62.26 219.29,-49.15"/>
<polygon fill="black" stroke="black" points="222.81,-49.35 219.54,-39.27 215.81,-49.18 222.81,-49.35"/>
<text text-anchor="middle" x="226.47" y="-59.8" font-family="Times,serif" font-size="14.00">2ğ‘¥</text>
</g>
</g>
</svg>
