<?xml version="1.0" encoding="UTF-8" standalone="no"?>
<!DOCTYPE svg PUBLIC "-//W3C//DTD SVG 1.1//EN"
 "http://www.w3.org/Graphics/SVG/1.1/DTD/svg11.dtd">
<!-- Generated by graphviz version 8.0.1 (20230327.1645)
 -->
<!-- Title: Diploid&#45;tetraploid hybridisation3 Pages: 1 -->
<svg width="409pt" height="238pt"
 viewBox="0.00 0.00 408.97 237.74" xmlns="http://www.w3.org/2000/svg" xmlns:xlink="http://www.w3.org/1999/xlink">
<g id="graph0" class="graph" transform="scale(1 1) rotate(0) translate(4 233.74)">
<title>Diploid&#45;tetraploid hybridisation3</title>
<polygon fill="white" stroke="none" points="-4,4 -4,-233.74 404.97,-233.74 404.97,4 -4,4"/>
<!-- maternal -->
<g id="node1" class="node diploid_tetraploid_hybridisation4 hybrid_outcome endosperm_outcome">
<title>maternal</title>
<ellipse fill="none" stroke="black" cx="141.97" cy="-202.87" rx="27" ry="26.74"/>
<text text-anchor="middle" x="141.97" y="-206.67" font-family="Times,serif" font-size="14.00">â™€</text>
<text text-anchor="middle" x="141.97" y="-191.67" font-family="Times,serif" font-size="14.00">2ğ‘¥</text>
</g>
<!-- maternal_gamete -->
<g id="node2" class="node diploid_tetraploid_hybridisation4 hybrid_outcome">
<title>maternal_gamete</title>
<ellipse fill="none" stroke="black" cx="106.97" cy="-107" rx="27" ry="18"/>
<text text-anchor="middle" x="106.97" y="-103.3" font-family="Times,serif" font-size="14.00">ğ‘¥</text>
</g>
<!-- maternal&#45;&gt;maternal_gamete -->
<g id="edge1" class="edge diploid_tetraploid_hybridisation4 hybrid_outcome">
<title>maternal&#45;&gt;maternal_gamete</title>
<path fill="none" stroke="black" d="M132.77,-177.21C127.91,-164.18 121.94,-148.17 116.97,-134.83"/>
<polygon fill="black" stroke="black" points="120.01,-133.96 113.23,-125.81 113.45,-136.4 120.01,-133.96"/>
<text text-anchor="middle" x="61.5" y="-154.8" font-family="Times,serif" font-size="14.00">(gamete production) &#160;&#160;</text>
</g>
<!-- endosperm -->
<g id="node6" class="node diploid_tetraploid_hybridisation4 endosperm_outcome onhover">
<title>endosperm</title>
<polygon fill="none" stroke="black" stroke-width="2" points="267.47,-38 172.47,-38 172.47,0 267.47,0 267.47,-38"/>
<text text-anchor="middle" x="219.97" y="-22.8" font-family="Times,serif" font-size="14.00">6ğ‘¥ endosperm</text>
<text text-anchor="middle" x="219.97" y="-7.8" font-family="Times,serif" font-size="14.00">(1â™€:2â™‚)</text>
</g>
<!-- maternal&#45;&gt;endosperm -->
<g id="edge5" class="edge diploid_tetraploid_hybridisation4 endosperm_outcome">
<title>maternal&#45;&gt;endosperm</title>
<path fill="none" stroke="black" d="M149.57,-176.75C156.89,-153.57 168.77,-118.4 181.97,-89 188.24,-75.02 196.3,-60.06 203.39,-47.66"/>
<polygon fill="black" stroke="black" points="206.81,-49.73 208.8,-39.32 200.76,-46.21 206.81,-49.73"/>
<text text-anchor="middle" x="163.85" y="-109.47" font-family="Times,serif" font-size="14.00">2ğ‘¥ &#160;</text>
</g>
<!-- hybrid_outcome -->
<g id="node5" class="node diploid_tetraploid_hybridisation4 hybrid_outcome onhover">
<title>hybrid_outcome</title>
<polygon fill="none" stroke="black" points="152.97,-37 64.97,-37 64.97,-1 152.97,-1 152.97,-37"/>
<text text-anchor="middle" x="108.97" y="-15.3" font-family="Times,serif" font-size="14.00">5ğ‘¥ F1 hybrid</text>
</g>
<!-- maternal_gamete&#45;&gt;hybrid_outcome -->
<g id="edge3" class="edge diploid_tetraploid_hybridisation4 hybrid_outcome">
<title>maternal_gamete&#45;&gt;hybrid_outcome</title>
<path fill="none" stroke="black" d="M107.37,-88.6C107.64,-77.06 108,-61.65 108.31,-48.36"/>
<polygon fill="black" stroke="black" points="111.83,-48.46 108.56,-38.38 104.83,-48.29 111.83,-48.46"/>
</g>
<!-- paternal -->
<g id="node3" class="node diploid_tetraploid_hybridisation4 hybrid_outcome endosperm_outcome">
<title>paternal</title>
<ellipse fill="none" stroke="black" cx="217.97" cy="-202.87" rx="27" ry="26.74"/>
<text text-anchor="middle" x="217.97" y="-206.67" font-family="Times,serif" font-size="14.00">â™‚</text>
<text text-anchor="middle" x="217.97" y="-191.67" font-family="Times,serif" font-size="14.00">4ğ‘¥</text>
</g>
<!-- paternal_gamete -->
<g id="node4" class="node diploid_tetraploid_hybridisation4 hybrid_outcome endosperm_outcome">
<title>paternal_gamete</title>
<ellipse fill="none" stroke="black" cx="217.97" cy="-107" rx="27" ry="18"/>
<text text-anchor="middle" x="217.97" y="-103.3" font-family="Times,serif" font-size="14.00">4ğ‘¥</text>
</g>
<!-- paternal&#45;&gt;paternal_gamete -->
<g id="edge2" class="edge diploid_tetraploid_hybridisation4 hybrid_outcome endosperm_outcome">
<title>paternal&#45;&gt;paternal_gamete</title>
<path fill="none" stroke="black" d="M217.97,-175.72C217.97,-163.43 217.97,-148.75 217.97,-136.21"/>
<polygon fill="black" stroke="black" points="221.47,-136.42 217.97,-126.42 214.47,-136.42 221.47,-136.42"/>
<text text-anchor="middle" x="309.47" y="-146.8" font-family="Times,serif" font-size="14.00"> &#160;&#160;(unreduced gamete production)</text>
</g>
<!-- paternal_gamete&#45;&gt;hybrid_outcome -->
<g id="edge4" class="edge diploid_tetraploid_hybridisation4 hybrid_outcome">
<title>paternal_gamete&#45;&gt;hybrid_outcome</title>
<path fill="none" stroke="black" d="M200.93,-92.56C184.45,-79.56 159.11,-59.56 139.2,-43.85"/>
<polygon fill="black" stroke="black" points="141.78,-40.64 131.76,-37.2 137.44,-46.14 141.78,-40.64"/>
</g>
<!-- paternal_gamete&#45;&gt;endosperm -->
<g id="edge6" class="edge diploid_tetraploid_hybridisation4 endosperm_outcome">
<title>paternal_gamete&#45;&gt;endosperm</title>
<path fill="none" stroke="black" d="M218.37,-88.6C218.63,-77.28 218.98,-62.26 219.29,-49.15"/>
<polygon fill="black" stroke="black" points="222.81,-49.35 219.54,-39.27 215.81,-49.18 222.81,-49.35"/>
<text text-anchor="middle" x="228.47" y="-59.8" font-family="Times,serif" font-size="14.00"> 4ğ‘¥</text>
</g>
</g>
</svg>
