<?xml version="1.0" encoding="UTF-8" standalone="no"?>
<!DOCTYPE svg PUBLIC "-//W3C//DTD SVG 1.1//EN"
 "http://www.w3.org/Graphics/SVG/1.1/DTD/svg11.dtd">
<!-- Generated by graphviz version 9.0.0 (20230911.1827)
 -->
<!-- Title: Backcross triploid2 Pages: 1 -->
<svg width="295pt" height="406pt"
 viewBox="0.00 0.00 294.80 405.99" xmlns="http://www.w3.org/2000/svg" xmlns:xlink="http://www.w3.org/1999/xlink">
<g id="graph0" class="graph" transform="scale(1 1) rotate(0) translate(4 401.99)">
<title>Backcross triploid2</title>
<polygon fill="white" stroke="none" points="-4,4 -4,-401.99 290.8,-401.99 290.8,4 -4,4"/>
<!-- maternal -->
<g id="node1" class="node backcross_triploid_2 hexaploid backcross">
<title>maternal</title>
<ellipse fill="none" stroke="black" cx="69.5" cy="-365.82" rx="27" ry="32.17"/>
<text text-anchor="middle" x="69.5" y="-371.27" font-family="Arial" font-size="14.00">â™€</text>
<text text-anchor="middle" x="69.5" y="-355.52" font-family="Arial" font-size="14.00">4ğ‘¥</text>
</g>
<!-- maternal_gamete -->
<g id="node2" class="node backcross_triploid_2 hexaploid backcross">
<title>maternal_gamete</title>
<ellipse fill="none" stroke="black" cx="69.5" cy="-260.86" rx="27" ry="21.04"/>
<text text-anchor="middle" x="69.5" y="-258.43" font-family="Arial" font-size="14.00">2ğ‘¥</text>
</g>
<!-- maternal&#45;&gt;maternal_gamete -->
<g id="edge1" class="edge backcross_triploid_2 hexaploid backcross">
<title>maternal&#45;&gt;maternal_gamete</title>
<path fill="none" stroke="black" d="M69.5,-333.37C69.5,-320.73 69.5,-306.18 69.5,-293.52"/>
<polygon fill="black" stroke="black" points="73,-293.6 69.5,-283.6 66,-293.6 73,-293.6"/>
<text text-anchor="middle" x="134" y="-302.35" font-family="Arial" font-size="14.00"> &#160;(gamete production)</text>
</g>
<!-- hybrid_outcome_1 -->
<g id="node5" class="node backcross_triploid_2 hexaploid backcross">
<title>hybrid_outcome_1</title>
<polygon fill="none" stroke="black" points="165,-202.82 74,-202.82 74,-166.82 165,-166.82 165,-202.82"/>
<text text-anchor="middle" x="119.5" y="-182.4" font-family="Arial" font-size="14.00">3ğ‘¥ F1 hybrid</text>
</g>
<!-- maternal_gamete&#45;&gt;hybrid_outcome_1 -->
<g id="edge4" class="edge backcross_triploid_2 hexaploid backcross">
<title>maternal_gamete&#45;&gt;hybrid_outcome_1</title>
<path fill="none" stroke="black" d="M81.6,-241.94C87.59,-233.08 94.93,-222.21 101.55,-212.41"/>
<polygon fill="black" stroke="black" points="104.31,-214.57 107.01,-204.32 98.51,-210.65 104.31,-214.57"/>
</g>
<!-- hybrid_outcome_3 -->
<g id="node7" class="node backcross_triploid_2 backcross onhover">
<title>hybrid_outcome_3</title>
<polygon fill="none" stroke="black" points="115,-36 0,-36 0,0 115,0 115,-36"/>
<text text-anchor="middle" x="57.5" y="-15.57" font-family="Arial" font-size="14.00">4ğ‘¥ F1 backcross</text>
</g>
<!-- maternal_gamete&#45;&gt;hybrid_outcome_3 -->
<g id="edge5" class="edge backcross_triploid_2 backcross">
<title>maternal_gamete&#45;&gt;hybrid_outcome_3</title>
<path fill="none" stroke="black" d="M67.47,-239.55C66.45,-228.67 65.27,-215.03 64.5,-202.82 61.05,-147.84 59.07,-83.49 58.15,-47.36"/>
<polygon fill="black" stroke="black" points="61.65,-47.67 57.91,-37.76 54.66,-47.84 61.65,-47.67"/>
</g>
<!-- paternal -->
<g id="node3" class="node backcross_triploid_2 hexaploid backcross">
<title>paternal</title>
<ellipse fill="none" stroke="black" cx="254.5" cy="-365.82" rx="27" ry="32.17"/>
<text text-anchor="middle" x="254.5" y="-371.27" font-family="Arial" font-size="14.00">â™‚</text>
<text text-anchor="middle" x="254.5" y="-355.52" font-family="Arial" font-size="14.00">2ğ‘¥</text>
</g>
<!-- paternal_gamete -->
<g id="node4" class="node backcross_triploid_2 hexaploid backcross">
<title>paternal_gamete</title>
<ellipse fill="none" stroke="black" cx="142.5" cy="-260.86" rx="27" ry="21.04"/>
<text text-anchor="middle" x="142.5" y="-258.43" font-family="Arial" font-size="14.00">ğ‘¥</text>
</g>
<!-- paternal&#45;&gt;paternal_gamete -->
<g id="edge2" class="edge backcross_triploid_2 hexaploid backcross">
<title>paternal&#45;&gt;paternal_gamete</title>
<path fill="none" stroke="black" d="M237.69,-340.05C228.25,-327.19 215.73,-311.74 202.5,-299.9 193.98,-292.26 183.75,-285.17 174.17,-279.22"/>
<polygon fill="black" stroke="black" points="176.21,-276.36 165.83,-274.24 172.63,-282.37 176.21,-276.36"/>
</g>
<!-- hybrid_outcome_1_gamete -->
<g id="node6" class="node backcross_triploid_2 backcross">
<title>hybrid_outcome_1_gamete</title>
<ellipse fill="none" stroke="black" cx="100.5" cy="-94.04" rx="27" ry="21.04"/>
<text text-anchor="middle" x="100.5" y="-91.61" font-family="Arial" font-size="14.00">2ğ‘¥</text>
</g>
<!-- paternal&#45;&gt;hybrid_outcome_1_gamete -->
<g id="edge3" class="edge backcross_triploid_2 backcross">
<title>paternal&#45;&gt;hybrid_outcome_1_gamete</title>
<path fill="none" stroke="black" d="M265.55,-336.26C281.96,-288.58 306.11,-192.15 259.5,-133.07 244.72,-114.33 180.73,-103.8 138.57,-98.78"/>
<polygon fill="black" stroke="black" points="139.15,-95.32 128.82,-97.68 138.37,-102.28 139.15,-95.32"/>
</g>
<!-- paternal_gamete&#45;&gt;hybrid_outcome_1 -->
<g id="edge6" class="edge backcross_triploid_2 hexaploid backcross">
<title>paternal_gamete&#45;&gt;hybrid_outcome_1</title>
<path fill="none" stroke="black" d="M136.34,-240.02C133.86,-232.04 130.95,-222.69 128.26,-214.02"/>
<polygon fill="black" stroke="black" points="131.66,-213.15 125.35,-204.64 124.97,-215.23 131.66,-213.15"/>
</g>
<!-- hybrid_outcome_1&#45;&gt;hybrid_outcome_1_gamete -->
<g id="edge7" class="edge backcross_triploid_2 backcross">
<title>hybrid_outcome_1&#45;&gt;hybrid_outcome_1_gamete</title>
<path fill="none" stroke="black" d="M101.32,-166.44C97.02,-161.23 93.03,-155.19 90.75,-148.82 88.08,-141.38 88.19,-133.08 89.54,-125.28"/>
<polygon fill="black" stroke="black" points="92.87,-126.37 91.87,-115.82 86.08,-124.69 92.87,-126.37"/>
<text text-anchor="middle" x="175.88" y="-135.52" font-family="Arial" font-size="14.00">â† (unreduced gametes) â†’ </text>
</g>
<!-- hybrid_outcome_1_gamete&#45;&gt;hybrid_outcome_3 -->
<g id="edge8" class="edge backcross_triploid_2 backcross">
<title>hybrid_outcome_1_gamete&#45;&gt;hybrid_outcome_3</title>
<path fill="none" stroke="black" d="M89.65,-74.35C84.68,-65.8 78.69,-55.49 73.24,-46.1"/>
<polygon fill="black" stroke="black" points="76.42,-44.6 68.37,-37.71 70.36,-48.12 76.42,-44.6"/>
</g>
</g>
</svg>
