<svg id="alternativeChart" viewBox="0,0,1000,700" style="background: white;" xmlns="http://www.w3.org/2000/svg"><g transform="translate(0, 650)" fill="none" font-size="10" font-family="sans-serif" text-anchor="middle"><path class="domain" stroke="currentColor" d="M80,6V0H975V6"></path><g class="tick" opacity="1" transform="translate(80,0)"><line stroke="currentColor" y2="6"></line><text fill="currentColor" y="9" dy="0.71em" transform="translate(22.5,0)" font-size="16" font-family="Helvetica">2</text></g><g class="tick" opacity="1" transform="translate(122.61904761904762,0)"><line stroke="currentColor" y2="6"></line><text fill="currentColor" y="9" dy="0.71em" transform="translate(22.5,0)" font-size="16" font-family="Helvetica">3</text></g><g class="tick" opacity="1" transform="translate(165.23809523809524,0)"><line stroke="currentColor" y2="6"></line><text fill="currentColor" y="9" dy="0.71em" transform="translate(22.5,0)" font-size="16" font-family="Helvetica">4</text></g><g class="tick" opacity="1" transform="translate(207.85714285714286,0)"><line stroke="currentColor" y2="6"></line><text fill="currentColor" y="9" dy="0.71em" transform="translate(22.5,0)" font-size="16" font-family="Helvetica">5</text></g><g class="tick" opacity="1" transform="translate(250.47619047619045,0)"><line stroke="currentColor" y2="6"></line><text fill="currentColor" y="9" dy="0.71em" transform="translate(22.5,0)" font-size="16" font-family="Helvetica">6</text></g><g class="tick" opacity="1" transform="translate(293.0952380952381,0)"><line stroke="currentColor" y2="6"></line><text fill="currentColor" y="9" dy="0.71em" transform="translate(22.5,0)" font-size="16" font-family="Helvetica">7</text></g><g class="tick" opacity="1" transform="translate(335.7142857142857,0)"><line stroke="currentColor" y2="6"></line><text fill="currentColor" y="9" dy="0.71em" transform="translate(22.5,0)" font-size="16" font-family="Helvetica">8</text></g><g class="tick" opacity="1" transform="translate(378.33333333333337,0)"><line stroke="currentColor" y2="6"></line><text fill="currentColor" y="9" dy="0.71em" transform="translate(22.5,0)" font-size="16" font-family="Helvetica">9</text></g><g class="tick" opacity="1" transform="translate(420.9523809523809,0)"><line stroke="currentColor" y2="6"></line><text fill="currentColor" y="9" dy="0.71em" transform="translate(22.5,0)" font-size="16" font-family="Helvetica">10</text></g><g class="tick" opacity="1" transform="translate(463.57142857142856,0)"><line stroke="currentColor" y2="6"></line><text fill="currentColor" y="9" dy="0.71em" transform="translate(22.5,0)" font-size="16" font-family="Helvetica">11</text></g><g class="tick" opacity="1" transform="translate(506.1904761904762,0)"><line stroke="currentColor" y2="6"></line><text fill="currentColor" y="9" dy="0.71em" transform="translate(22.5,0)" font-size="16" font-family="Helvetica">12</text></g><g class="tick" opacity="1" transform="translate(548.8095238095239,0)"><line stroke="currentColor" y2="6"></line><text fill="currentColor" y="9" dy="0.71em" transform="translate(22.5,0)" font-size="16" font-family="Helvetica">13</text></g><g class="tick" opacity="1" transform="translate(591.4285714285714,0)"><line stroke="currentColor" y2="6"></line><text fill="currentColor" y="9" dy="0.71em" transform="translate(22.5,0)" font-size="16" font-family="Helvetica">14</text></g><g class="tick" opacity="1" transform="translate(634.047619047619,0)"><line stroke="currentColor" y2="6"></line><text fill="currentColor" y="9" dy="0.71em" transform="translate(22.5,0)" font-size="16" font-family="Helvetica">15</text></g><g class="tick" opacity="1" transform="translate(676.6666666666666,0)"><line stroke="currentColor" y2="6"></line><text fill="currentColor" y="9" dy="0.71em" transform="translate(22.5,0)" font-size="16" font-family="Helvetica">16</text></g><g class="tick" opacity="1" transform="translate(719.2857142857143,0)"><line stroke="currentColor" y2="6"></line><text fill="currentColor" y="9" dy="0.71em" transform="translate(22.5,0)" font-size="16" font-family="Helvetica">17</text></g><g class="tick" opacity="1" transform="translate(761.9047619047618,0)"><line stroke="currentColor" y2="6"></line><text fill="currentColor" y="9" dy="0.71em" transform="translate(22.5,0)" font-size="16" font-family="Helvetica">18</text></g><g class="tick" opacity="1" transform="translate(804.5238095238095,0)"><line stroke="currentColor" y2="6"></line><text fill="currentColor" y="9" dy="0.71em" transform="translate(22.5,0)" font-size="16" font-family="Helvetica">19</text></g><g class="tick" opacity="1" transform="translate(847.1428571428571,0)"><line stroke="currentColor" y2="6"></line><text fill="currentColor" y="9" dy="0.71em" transform="translate(22.5,0)" font-size="16" font-family="Helvetica">20</text></g><g class="tick" opacity="1" transform="translate(889.7619047619047,0)"><line stroke="currentColor" y2="6"></line><text fill="currentColor" y="9" dy="0.71em" transform="translate(22.5,0)" font-size="16" font-family="Helvetica">21</text></g><g class="tick" opacity="1" transform="translate(932.3809523809524,0)"><line stroke="currentColor" y2="6"></line><text fill="currentColor" y="9" dy="0.71em" transform="translate(22.5,0)" font-size="16" font-family="Helvetica">22</text></g><g class="tick" opacity="1" transform="translate(975,0)"><line stroke="currentColor" y2="6"></line><text fill="currentColor" y="9" dy="0.71em" transform="translate(22.5,0)" font-size="16" font-family="Helvetica"></text></g></g><g transform="translate(80,0)" fill="none" font-size="16" font-family="Helvetica" text-anchor="end" class="y axis"><path class="domain" stroke="currentColor" d="M-6,80H0V650H-6"></path><g class="tick" opacity="1" transform="translate(0, 80)"><line stroke="currentColor" x2="-6"></line><text fill="currentColor" x="-9" dy="0.32em">800</text></g><g class="tick" opacity="1" transform="translate(0, 151.25)"><line stroke="currentColor" x2="-6"></line><text fill="currentColor" x="-9" dy="0.32em">700</text></g><g class="tick" opacity="1" transform="translate(0, 222.5)"><line stroke="currentColor" x2="-6"></line><text fill="currentColor" x="-9" dy="0.32em">600</text></g><g class="tick" opacity="1" transform="translate(0, 293.75)"><line stroke="currentColor" x2="-6"></line><text fill="currentColor" x="-9" dy="0.32em">500</text></g><g class="tick" opacity="1" transform="translate(0, 365)"><line stroke="currentColor" x2="-6"></line><text fill="currentColor" x="-9" dy="0.32em">400</text></g><g class="tick" opacity="1" transform="translate(0, 436.25)"><line stroke="currentColor" x2="-6"></line><text fill="currentColor" x="-9" dy="0.32em">300</text></g><g class="tick" opacity="1" transform="translate(0, 507.5)"><line stroke="currentColor" x2="-6"></line><text fill="currentColor" x="-9" dy="0.32em">200</text></g><g class="tick" opacity="1" transform="translate(0, 578.75)"><line stroke="currentColor" x2="-6"></line><text fill="currentColor" x="-9" dy="0.32em">100</text></g><g class="tick" opacity="1" transform="translate(0,650)"><line stroke="currentColor" x2="-6"></line><text fill="currentColor" x="-9" dy="0.32em">0</text></g></g><text font-size="16" font-family="Helvetica" font-weight="bold" transform="translate(454.5454545454545, 690)">Ploidy level</text><text font-size="16" font-family="Helvetica" font-weight="bold" transform="translate(30, 350)rotate(270)" style="text-anchor: end;">Count</text><rect fill="rgb(96, 191, 89)" x="81" width="41.38095238095239" y="141.9875" height="508.0125"></rect><rect fill="rgb(96, 191, 89)" x="123.61904761904762" width="41.38095238095239" y="624.35" height="25.649999999999977"></rect><rect fill="rgb(96, 191, 89)" x="166.23809523809524" width="41.38095238095239" y="371.4125" height="278.5875"></rect><rect fill="rgb(96, 191, 89)" x="208.85714285714286" width="41.38095238095239" y="634.325" height="15.674999999999955"></rect><rect fill="rgb(96, 191, 89)" x="251.47619047619045" width="41.38095238095239" y="586.5875" height="63.41250000000002"></rect><rect fill="rgb(96, 191, 89)" x="294.0952380952381" width="41.38095238095239" y="647.8625" height="2.1375000000000455"></rect><rect fill="rgb(96, 191, 89)" x="336.7142857142857" width="41.38095238095239" y="633.6125" height="16.387500000000045"></rect><rect fill="rgb(96, 191, 89)" x="379.33333333333337" width="41.38095238095239" y="649.2875" height="0.7124999999999773"></rect><rect fill="rgb(96, 191, 89)" x="421.9523809523809" width="41.38095238095239" y="647.15" height="2.8500000000000227"></rect><rect fill="rgb(96, 191, 89)" x="464.57142857142856" width="41.38095238095239" y="650" height="0"></rect><rect fill="rgb(96, 191, 89)" x="507.1904761904762" width="41.38095238095239" y="646.4375" height="3.5625"></rect><rect fill="rgb(96, 191, 89)" x="549.8095238095239" width="41.38095238095239" y="648.575" height="1.4249999999999545"></rect><rect fill="rgb(96, 191, 89)" x="592.4285714285714" width="41.38095238095239" y="649.2875" height="0.7124999999999773"></rect><rect fill="rgb(96, 191, 89)" x="635.047619047619" width="41.38095238095239" y="650" height="0"></rect><rect fill="rgb(96, 191, 89)" x="677.6666666666666" width="41.38095238095239" y="648.575" height="1.4249999999999545"></rect><rect fill="rgb(96, 191, 89)" x="720.2857142857143" width="41.38095238095239" y="650" height="0"></rect><rect fill="rgb(96, 191, 89)" x="762.9047619047618" width="41.38095238095239" y="650" height="0"></rect><rect fill="rgb(96, 191, 89)" x="805.5238095238095" width="41.38095238095239" y="650" height="0"></rect><rect fill="rgb(96, 191, 89)" x="848.1428571428571" width="41.38095238095239" y="650" height="0"></rect><rect fill="rgb(96, 191, 89)" x="890.7619047619047" width="41.38095238095239" y="650" height="0"></rect><rect fill="rgb(96, 191, 89)" x="933.3809523809524" width="41.38095238095239" y="649.2875" height="0.7124999999999773"></rect><rect fill="rgb(96, 191, 89)" x="976" width="41.38095238095239" y="650" height="0"></rect></svg>